<?xml version="1.0" encoding="UTF-8" standalone="no"?>
<svg
   xmlns:osb="http://www.openswatchbook.org/uri/2009/osb"
   xmlns:dc="http://purl.org/dc/elements/1.1/"
   xmlns:cc="http://creativecommons.org/ns#"
   xmlns:rdf="http://www.w3.org/1999/02/22-rdf-syntax-ns#"
   xmlns:svg="http://www.w3.org/2000/svg"
   xmlns="http://www.w3.org/2000/svg"
   xmlns:sodipodi="http://sodipodi.sourceforge.net/DTD/sodipodi-0.dtd"
   xmlns:inkscape="http://www.inkscape.org/namespaces/inkscape"
   version="1.1"
   width="234"
   height="294"
   id="svg2"
   style="display:inline"
   inkscape:version="1.0.1 (0767f8302a, 2020-10-17)"
   sodipodi:docname="logo.svg">
  <sodipodi:namedview
     pagecolor="#ffffff"
     bordercolor="#666666"
     borderopacity="1"
     objecttolerance="10"
     gridtolerance="10"
     guidetolerance="10"
     inkscape:pageopacity="0"
     inkscape:pageshadow="2"
     inkscape:window-width="1920"
     inkscape:window-height="1017"
     id="namedview45"
     showgrid="false"
     inkscape:zoom="6.0897766"
     inkscape:cx="106.00096"
     inkscape:cy="131.77275"
     inkscape:window-x="1366"
     inkscape:window-y="30"
     inkscape:window-maximized="1"
     inkscape:current-layer="svg2"
     inkscape:document-rotation="0"
     inkscape:object-nodes="false" />
  <defs
     id="defs4">
    <linearGradient
       id="linearGradient5312"
       osb:paint="solid">
      <stop
         style="stop-color:#000000;stop-opacity:1;"
         offset="0"
         id="stop5314" />
    </linearGradient>
  </defs>
  <metadata
     id="metadata7">
    <rdf:RDF>
      <cc:Work
         rdf:about="">
        <dc:format>image/svg+xml</dc:format>
        <dc:type
           rdf:resource="http://purl.org/dc/dcmitype/StillImage" />
        <dc:title></dc:title>
      </cc:Work>
    </rdf:RDF>
  </metadata>
  <path
     inkscape:connector-curvature="0"
     style="color:#000000;display:inline;overflow:visible;visibility:visible;fill:none;fill-opacity:1;stroke:#000000;stroke-width:3;stroke-linecap:round;stroke-linejoin:round;stroke-miterlimit:4;stroke-dasharray:none;stroke-dashoffset:0;stroke-opacity:1;marker:none;enable-background:accumulate"
     id="path2996"
     d="M 166.10115,237.65996 90.51009,154.92231 C 56.65402,117.8654 88.39625,84.48991 109.99331,81.95984 m 16.49294,0.23028 c 23.07143,0.0373 49.57451,38.34102 21.96821,71.48817 l -18.42985,22.1289 m -11.20715,11.97022 -46.49224,51.72234" />
  <path
     inkscape:connector-curvature="0"
     style="color:#000000;fill:none;stroke:#000000;stroke-width:3;stroke-linecap:round;stroke-linejoin:round;stroke-miterlimit:4;stroke-opacity:1;stroke-dasharray:none;stroke-dashoffset:0;marker:none;visibility:visible;display:inline;overflow:visible;enable-background:accumulate"
     id="path2998"
     d="M 171.88484,231.87627 96.13978,150.56199 c -26.8615,-28.83651 -6.17989,-56.9722 13.92477,-61.68398 m 16.20386,0.11833 c 21.64182,5.37977 37.28407,31.8338 14.29919,59.94984 l -16.68842,20.41395 m -10.75677,12.1794 -46.29931,52.15785" />
  <path
     inkscape:connector-curvature="0"
     style="color:#000000;fill:none;stroke:#000000;stroke-width:3;stroke-linecap:round;stroke-linejoin:round;stroke-miterlimit:4;stroke-opacity:1;stroke-dasharray:none;stroke-dashoffset:0;marker:none;visibility:visible;display:inline;overflow:visible;enable-background:accumulate"
     id="path3018"
     d="m 176.87985,225.041 -73.57812,-77.21686 c -23.91388,-25.09652 -6.77256,-46.25431 6.89674,-50.84647 m 16.43707,0.039 c 12.32061,4.3491 27.2508,23.623 8.93705,46.14578 l -17.13037,21.06742 m -9.92364,10.98444 -46.69049,52.69934" />
  <path
     inkscape:connector-curvature="0"
     style="color:#000000;fill:none;stroke:#000000;stroke-width:3;stroke-linecap:round;stroke-linejoin:round;stroke-miterlimit:4;stroke-opacity:1;stroke-dasharray:none;stroke-dashoffset:0;marker:none;visibility:visible;display:inline;overflow:visible;enable-background:accumulate"
     id="path3020"
     d="m 111.80114,196.55574 0,70.19301 8.41265,21.03162 8.41264,-22.0832 0,-67.82695" />
  <path
     inkscape:connector-curvature="0"
     style="color:#000000;fill:none;stroke:#000000;stroke-width:3;stroke-linecap:round;stroke-linejoin:round;stroke-miterlimit:4;stroke-opacity:1;stroke-dasharray:none;stroke-dashoffset:0;marker:none;visibility:visible;display:inline;overflow:visible;enable-background:accumulate"
     id="path3022"
     d="m 120.21379,189.32612 0,98.45425" />
  <path
     inkscape:connector-curvature="0"
     style="color:#000000;fill:none;stroke:#000000;stroke-width:3;stroke-linecap:round;stroke-linejoin:round;stroke-miterlimit:4;stroke-opacity:1;stroke-dasharray:none;stroke-dashoffset:0;marker:none;visibility:visible;display:inline;overflow:visible;enable-background:accumulate"
     id="path3024"
     d="m 110.22377,154.96773 c 0.2629,-3.94343 0,-89.99103 0,-89.99103" />
  <path
     inkscape:connector-curvature="0"
     style="color:#000000;fill:none;stroke:#000000;stroke-width:3;stroke-linecap:round;stroke-linejoin:round;stroke-miterlimit:4;stroke-opacity:1;stroke-dasharray:none;stroke-dashoffset:0;marker:none;visibility:visible;display:inline;overflow:visible;enable-background:accumulate"
     id="path3026"
     d="m 118.11063,163.48927 0,-98.77546" />
  <path
     inkscape:connector-curvature="0"
     style="color:#000000;fill:none;stroke:#000000;stroke-width:3;stroke-linecap:round;stroke-linejoin:round;stroke-miterlimit:4;stroke-opacity:1;stroke-dasharray:none;stroke-dashoffset:0;marker:none;visibility:visible;display:inline;overflow:visible;enable-background:accumulate"
     id="path3028"
     d="m 125.99748,155.01831 0,-89.77871" />
  <path
     inkscape:connector-curvature="0"
     style="color:#000000;fill:none;stroke:#000000;stroke-width:3;stroke-linecap:round;stroke-linejoin:round;stroke-miterlimit:4;stroke-opacity:1;stroke-dasharray:none;stroke-dashoffset:0;marker:none;visibility:visible;display:inline;overflow:visible;enable-background:accumulate"
     id="path3030"
     d="m 77.10262,49.06895 c -6.96927,0 -12.625,5.65573 -12.625,12.625 0,6.96926 5.65573,12.625 12.625,12.625 6.09811,0 11.16708,-4.3435 12.34375,-10.09375 10.14392,-0.1445 39.89478,-0.51409 54.90625,-0.3125 1.05548,5.90265 6.20005,10.40625 12.40625,10.40625 6.96926,0 12.625,-5.65574 12.625,-12.625 0,-6.96927 -5.65574,-12.625 -12.625,-12.625 -5.59295,0 -10.34475,3.64834 -12,8.6875 l -55.65625,0 c -1.65525,-5.03916 -6.40705,-8.6875 -12,-8.6875 z" />
  <path
     inkscape:connector-curvature="0"
     style="color:#000000;fill:none;stroke:#000000;stroke-width:3;stroke-linecap:round;stroke-linejoin:round;stroke-miterlimit:4;stroke-opacity:1;stroke-dasharray:none;stroke-dashoffset:0;marker:none;visibility:visible;display:inline;overflow:visible;enable-background:accumulate"
     id="path3037"
     d="m 112.32693,57.74709 0,-37.06822 C 111.52051,12.40114 108.89875,8.96433 106.01745,6.21963 l 20.24293,0 c -5.63929,5.55043 -5.89053,9.75383 -6.04659,13.93345 l 0,37.33111" />
  <path
     inkscape:connector-curvature="0"
     style="color:#000000;fill:none;stroke:#000000;stroke-width:3;stroke-linecap:round;stroke-linejoin:round;stroke-miterlimit:4;stroke-opacity:1;stroke-dasharray:none;stroke-dashoffset:0;marker:none;visibility:visible;display:inline;overflow:visible;enable-background:accumulate"
     id="path3039"
     d="m 121.26537,36.45258 c 13.7016,0.71972 25.59993,5.74362 35.19563,12.30509 m 13.06622,11.35076 c 5.76824,6.18086 11.41979,14.97867 12.20404,17.3558 20.5222,51.11494 17.87512,112.53611 -0.52579,143.54076 -19.28148,32.48836 -38.32796,32.31699 -52.05325,34.17638" />
  <path
     inkscape:connector-curvature="0"
     style="color:#000000;display:inline;overflow:visible;visibility:visible;fill:none;stroke:#000000;stroke-width:3;stroke-linecap:round;stroke-linejoin:round;stroke-miterlimit:4;stroke-dasharray:none;stroke-dashoffset:0;stroke-opacity:1;marker:none;enable-background:accumulate"
     id="path3041"
     d="m 111.60607,36.507289 c -13.701597,1.08975 -24.298667,6.01784 -33.894367,12.49099 m -13.85491,11.35076 c -5.52415,5.68863 -9.57256,12.84131 -11.41535,17.35579 -20.816291,50.995891 -16.57386,111.978431 1.82705,142.983081 19.28148,32.48836 42.78944,33.80414 56.514727,35.66353" />
  <path
     inkscape:connector-curvature="0"
     style="color:#000000;display:inline;overflow:visible;visibility:visible;fill:none;stroke:#000000;stroke-width:3;stroke-linecap:round;stroke-linejoin:round;stroke-miterlimit:4;stroke-dasharray:none;stroke-dashoffset:0;stroke-opacity:1;marker:none;enable-background:accumulate"
     id="path3043"
     d="m 126.26038,6.21963 c 53.45015,6.32912 74.74146,38.89307 90.99559,75.5663 16.24908,43.54479 13.39294,107.63457 -5.20506,146.48524 -19.00855,32.91057 -43.80199,56.45785 -91.46032,58.7428 C 83.14566,287.57739 51.77031,273.55176 32.10458,246.11708 -3.47595,196.48046 -3.53085,86.00301 33.21995,43.49157 46.29636,28.36546 66.76298,9.97184 104.97541,6.12669" />
  <g
     aria-label="  belo wess"
     transform="translate(2.0463914,-2.8827874)"
     id="text136"
     style="font-style:normal;font-variant:normal;font-weight:normal;font-stretch:normal;font-size:32px;line-height:0;font-family:'Cvlt Rvne Demo';-inkscape-font-specification:'Cvlt Rvne Demo';letter-spacing:10px;word-spacing:5px;writing-mode:lr-tb;direction:ltr;white-space:pre;fill:#000000;fill-opacity:1;stroke:none;stroke-opacity:1">
    <path
       d="m 41.927105,73.568487 q 0.199708,0.252254 0.498283,0.917896 0.190293,0.519089 0.298576,0.665642 0.137138,0.158551 0.606262,0.6582 0.526835,0.523644 0.68569,0.792756 0.01686,0.04085 0.07943,0.134556 0.01914,-0.127418 0.06713,-0.242839 0.177382,-0.670806 0.321353,-1.017067 l 0.124837,-0.218844 0.05999,-0.144276 q 0.0071,-0.09856 0.04313,-0.185128 l 0.012,-0.02886 q 0.08398,-0.201986 0.26653,-0.396835 -0.779089,-0.323936 -2.522395,-1.014938 -0.115421,-0.04799 -0.36312,-0.184824 -0.06971,0.0049 -0.11056,0.02172 l -0.324545,-0.03341 q 0.108283,0.146554 0.257419,0.27625 z M 25.341168,67.958309 q -0.0094,0.266834 -0.105396,0.497675 -0.08398,0.201986 -0.21368,0.351122 -0.012,0.02885 -0.06485,0.07457 l -0.012,0.02885 q -0.0071,0.09856 -0.02627,0.225981 0.249977,-0.03144 0.663365,-0.130304 0.425385,-0.127723 0.692219,-0.118307 0.06971,-0.0049 0.168271,0.0023 l 0.257114,-0.130001 q 0.122558,-0.05057 0.233119,-0.07229 0.790783,-0.111169 1.103329,-0.0489 0.08171,-0.03372 0.163411,-0.06743 0.33882,-0.163715 0.576799,-0.166297 0.168271,0.0023 0.427967,0.110256 0.08171,-0.03372 0.204264,-0.08429 0.163411,-0.06743 0.331682,-0.06515 -0.47854,-0.232815 -1.286484,-0.568749 l -0.02886,-0.012 q -0.391974,-0.196822 -0.709381,-0.328796 -0.750234,-0.311939 -0.964217,-0.367067 -0.09856,-0.0071 -0.185129,-0.04313 L 26.13362,66.866369 q -0.08171,0.03372 -0.163411,0.06743 l -0.192266,0.05543 -0.05999,0.144275 q -0.119977,0.288552 -0.326518,0.541111 -0.01914,0.127418 -0.05027,0.283691 z m 22.470865,6.026444 q -0.03827,0.254837 -0.08626,0.370257 -0.107978,0.259697 -0.425081,0.533973 -0.012,0.02886 -0.04085,0.01686 -0.05285,0.04571 -0.1057,0.09143 l -0.251951,0.605959 q -0.0071,0.09856 -0.03113,0.156273 -0.05999,0.144276 -0.206541,0.252558 -0.07685,0.103423 -0.196822,0.391975 l -0.08398,0.201986 q -0.163106,0.47368 -0.153387,0.613096 -0.0023,0.168271 -0.05027,0.283691 -0.07199,0.173131 -0.218539,0.281414 l -0.105701,0.09143 -0.143972,0.346262 q -0.07912,0.271694 -0.175104,0.502535 -0.419917,1.00993 -1.063842,1.419066 -0.240256,0.170854 -0.528808,0.05088 l -0.05771,-0.02399 q -0.767091,-0.352791 -1.227104,-1.525524 -0.110865,-0.384532 -0.173435,-0.478236 -0.05057,-0.122558 -0.130001,-0.257114 -0.06257,-0.0937 -0.07943,-0.134556 l -0.223704,-0.194544 q -0.206846,-0.153691 -0.437991,-0.655922 -0.163715,-0.33882 -0.238283,-0.403668 -0.07943,-0.134556 -0.303131,-0.3291 -0.298272,-0.259392 -0.423412,-0.446798 -0.06257,-0.0937 -0.113143,-0.216262 Q 40.42588,75.144131 40.387305,74.992717 39.797596,73.96912 39.285037,73.24835 38.760481,72.556435 37.637104,71.514006 L 36.973435,71.238061 Q 36.8243,71.108365 36.518891,70.947536 36.230339,70.82756 35.826367,70.659593 35.422395,70.491626 34.86215,70.292526 q -0.589101,-0.211097 -0.935363,-0.355069 -0.0937,0.06257 -0.257114,0.130001 -0.216261,0.113142 -0.309965,0.175713 -0.223399,0.211705 -0.478235,0.173435 -0.3534,-0.04541 -0.706799,-0.09082 -0.04085,0.01686 -0.08171,0.03372 -0.192266,0.05543 -0.343679,0.09401 -0.180269,0.02658 -0.463961,-0.02369 -0.127418,-0.01914 -0.225981,-0.02627 -0.06971,0.0049 -0.290829,0.04829 -0.372535,0.08201 -1.336448,0.121193 -0.853353,0.01747 -1.569567,0.193483 -0.264252,0.228563 -0.588797,0.195152 -0.46882,-0.0934 -1.300455,0.03463 -0.651366,0.101449 -0.930198,0.120889 -0.269112,0.158855 -0.321962,0.204568 -0.175409,0.09629 -0.605654,0.1543 -0.06971,0.0049 -0.110561,0.02172 -0.146554,0.108283 -0.326822,0.13486 -0.331682,0.06515 -0.649089,-0.06682 -0.346262,-0.143972 -0.620538,-0.461074 -0.577407,-0.646203 -0.371169,-1.305011 l 0.02399,-0.05771 q 0.107979,-0.259697 0.353095,-0.360842 l 0.233119,-0.07229 q 0.177383,-0.670806 0.417335,-1.247909 0.467908,-1.12535 1.176376,-2.015304 0.012,-0.02885 0.01913,-0.127418 0.05513,-0.213984 0.115117,-0.35826 l 0.03599,-0.08657 q 0.02399,-0.05771 0.08884,-0.132278 0.112838,-0.189989 0.487651,-0.44027 0.439661,-0.324848 0.874766,-0.313155 0.209124,-0.01458 0.46882,0.0934 0.317407,0.131974 0.817664,0.47535 0.396834,0.26653 0.65653,0.374508 l 0.115421,0.04799 q 0.365397,0.01655 0.954498,0.22765 0.329404,0.103119 0.53139,0.187102 0.230841,0.09598 0.391974,0.196822 0.161134,0.100841 0.223704,0.194544 0.06971,-0.0049 0.09856,0.0071 0.353399,0.04541 1.53646,0.537311 l 0.721379,0.299941 0.103423,0.07685 q 0.09856,0.0071 0.156273,0.03113 0.115421,0.04799 0.531391,0.187102 0.444824,0.151109 0.5891,0.211097 0.144276,0.05999 0.668528,0.345654 0.466543,0.261669 0.610818,0.321658 0.173131,0.07199 0.593961,0.280805 l 0.173131,0.07199 q 0.230841,0.09598 0.444824,0.151109 0.271694,0.07912 0.399113,0.09826 0.254836,0.03827 0.370257,0.08626 0.230841,0.09598 0.495397,0.273668 0.161133,0.100841 0.47854,0.232814 l 0.259696,0.107979 q 0.502535,0.175105 0.629953,0.19424 0.197127,0.01427 0.370257,0.08626 0.259697,0.107979 0.529113,0.355373 0.218843,0.124836 0.305409,0.160829 l 0.05771,0.024 q 0.242839,0.06713 1.103633,0.357346 0.77423,0.254228 1.057921,0.304497 0.237979,-0.0026 0.497675,0.105396 0.288552,0.119977 0.668529,0.345654 0.54111,0.326518 0.685385,0.386506 0.05771,0.02399 0.168271,0.0023 0.365397,0.01655 0.567383,0.100536 0.144276,0.05999 0.264557,0.177687 0.09143,0.105701 0.153995,0.199404 l 0.04571,0.05285 q 0.302827,-0.07715 0.504813,0.0068 l 0.201986,0.08398 q 0.06971,-0.0049 0.11056,-0.02172 0.122559,-0.05057 0.331683,-0.06515 0.165688,-0.235701 0.44452,-0.25514 l 0.209124,-0.01458 q 0.139416,-0.0097 0.254836,0.03827 0.115421,0.04799 0.189989,0.112838 0.177991,0.141694 0.209428,0.391671 0.09173,0.51195 0.113447,0.622511 0.02658,0.180269 -0.04541,0.353399 z"
       style="font-size:32px;line-height:1.25;writing-mode:lr-tb;direction:ltr;stroke:none;stroke-opacity:1"
       id="path1062" />
    <path
       d="m 22.579366,91.765942 q 0.173416,0.07784 0.375538,0.292463 l 0.03023,0.0079 q 0.374017,0.421301 1.583034,0.738757 0.181352,0.04762 0.330959,0.216139 0.181353,0.04762 0.316607,0.147751 0.173416,0.07784 0.797173,0.532411 0.601468,0.416404 0.805109,0.502184 0.346832,0.155688 0.571243,0.408468 l 0.06045,0.01587 q 0.289422,-0.117861 1.274029,-0.05318 0.144711,-0.05893 0.31171,-0.0797 0.174937,-0.05099 0.326064,-0.01131 l 0.09068,0.02381 0.225931,0.123943 q 0.197225,-0.01283 0.485127,-0.0019 0.378577,0.03479 0.47719,0.02837 0.106549,-0.03664 0.174936,-0.05099 0.144711,-0.05893 0.319648,-0.109925 0.205161,-0.04306 0.416739,0.0125 l 0.241804,0.06349 q 0.09068,0.02381 0.326063,-0.01131 0.09861,-0.0064 0.213098,-0.07328 0.106549,-0.03664 0.174936,-0.05099 0.06839,-0.01435 0.167,-0.02077 0.09068,0.02381 0.241804,0.06349 l 0.211578,0.05555 q 0.144711,-0.05893 0.456421,-0.13863 0.136775,-0.02871 0.408804,0.04272 l 0.203641,0.08578 0.09068,0.02381 q 0.205162,-0.04306 0.607549,-0.09895 0.508936,-0.09253 0.744324,-0.127653 0.333999,-0.04154 0.787381,0.07751 0.09861,-0.0064 0.189289,0.01739 l 0.228971,-0.133734 q 0.07632,-0.04458 0.182872,-0.08122 0.167,-0.02077 0.515353,0.0061 l 0.128838,0.0015 q 0.228971,-0.133734 0.373682,-0.192665 0.205161,-0.04306 0.545577,0.01402 0.260717,-0.254636 0.593197,-0.167336 l 0.332479,0.0873 q 0.181353,0.04762 0.30867,0.177977 0.351729,0.383138 0.483942,0.740948 0.07328,0.213098 0.02567,0.39445 -0.05556,0.211578 -0.254301,0.353248 -0.359329,0.261052 -0.399011,0.412179 0.02229,0.03816 0.0064,0.09861 0.01283,0.197225 -0.02685,0.348352 -0.02381,0.09068 -0.201786,0.399347 l -0.0079,0.03023 q -0.04762,0.181353 -0.05218,0.567867 -0.03175,0.120902 -0.101653,0.264093 -0.03968,0.151127 -0.2207,0.717473 l -0.0079,0.03023 q -0.09372,0.233866 -0.133399,0.384994 l -0.04762,0.181352 0.02229,0.03816 q -0.0015,0.128838 0.03512,0.235387 0.02871,0.136775 -0.01098,0.287902 l -0.01587,0.06045 q -0.07143,0.272029 -0.348017,0.587114 -0.03816,0.0223 -0.08426,0.0748 0.0211,0.78096 -0.0662,1.11344 -0.05555,0.21158 -0.2543,0.35325 l -0.198746,0.14167 q -0.236907,0.16396 -0.508936,0.0925 -0.151127,-0.0397 -0.679312,-0.24299 -0.203641,-0.0858 -0.315086,-0.27659 -0.200601,-0.34345 -0.08156,-0.79684 0.05556,-0.21157 0.225595,-0.49002 0.147752,-0.316605 0.19537,-0.497958 l 0.01587,-0.06045 q 0.02685,-0.348352 0.233196,-1.134213 0.206347,-0.785861 0.300064,-1.019728 l 0.02381,-0.09068 q 0.03175,-0.120901 0.05708,-0.340416 0.02381,-0.09068 0.08578,-0.203641 0.116006,-0.195705 0.155688,-0.346832 l 0.0079,-0.03023 q -0.0064,-0.09861 0.003,-0.257676 -0.167,0.02077 -0.257677,-0.003 -0.128838,-0.0015 -0.340416,-0.05707 -0.120901,-0.03175 -0.219514,-0.02533 -0.09861,0.0064 -0.402387,0.05589 -0.478711,0.100468 -0.675936,0.1133 -0.265613,0.02719 -0.567867,-0.05218 l -0.09068,-0.02381 q -0.06839,0.01435 -0.174936,0.05099 -0.213099,0.07328 -0.319648,0.109925 -0.09861,0.0064 -0.197225,0.01283 -0.24974,-0.03327 -0.914699,-0.207867 -0.0079,0.03023 -0.03816,0.02229 -0.259196,0.125798 -0.395971,0.154503 -0.136774,0.02871 -0.287901,-0.01098 l -0.211578,-0.05555 q -0.106549,0.03664 -0.182873,0.08122 -0.182873,0.08122 -0.424676,0.01773 -0.228971,0.133734 -0.41826,0.116341 -0.197225,0.01283 -0.650606,-0.106214 -0.219515,-0.02533 -0.340416,-0.05708 l -0.152648,0.08916 q -0.160584,0.119381 -0.380098,0.09405 -0.189289,-0.01739 -0.348352,-0.02685 -0.190809,0.111445 -0.327584,0.14015 -0.136774,0.02871 -0.287902,-0.01098 l -0.06045,-0.01587 q -0.120902,-0.03175 -0.294318,-0.109589 -0.174936,0.05099 -0.442069,0.207017 -0.07632,0.04458 -0.144711,0.05893 -0.25126,0.09557 -0.766613,0.08949 -0.515352,-0.0061 -0.636254,-0.03783 -0.241803,-0.06349 -0.353248,-0.254301 -0.30563,-0.435653 -0.824358,-0.798022 l -0.02229,-0.03816 q -0.300734,-0.208203 -0.496439,-0.324208 -0.217994,-0.154168 -0.639629,-0.394116 -0.421636,-0.239948 -0.617341,-0.355953 -0.233867,-0.09372 -0.822502,-0.312896 -0.06045,-0.01587 -0.08274,-0.05404 -0.308671,-0.177977 -1.182167,-0.665809 -0.873497,-0.487832 -1.182167,-0.665809 l -0.06045,-0.01587 q -0.135254,-0.100133 -0.30867,-0.177977 -0.09861,0.0064 -0.189289,-0.01739 l -0.03023,-0.0079 q -0.513832,-0.134919 -1.288716,-0.629168 -0.526664,-0.332144 -1.183687,-0.536971 -0.07784,0.173416 -0.139815,0.286382 0.02229,0.03816 0.0064,0.09861 0.05893,0.144711 0.07328,0.213098 0.0287,0.136775 -0.01098,0.287902 l -0.0079,0.03023 q -0.04762,0.181353 -0.201786,0.399347 l -0.190474,0.72541 q -0.08088,0.431092 -0.09034,0.590156 0.02077,0.167 0.114821,0.547098 0.152982,0.524809 0.126133,0.873161 l -0.02381,0.09068 q -0.04762,0.181353 -0.216138,0.33096 -0.206682,0.171895 -0.632879,0.318462 -0.388034,0.124277 -0.623421,0.159398 -0.128838,-0.0015 -0.219515,-0.02533 -0.211578,-0.05555 -0.353248,-0.254301 -0.283341,-0.397491 -0.237578,-1.06397 0.02533,-0.219514 0.01891,-0.318127 -0.184729,-0.403907 -0.129174,-0.615485 l 0.185914,-0.338896 q 0.003,-0.257676 0.03935,-0.765092 0.04424,-0.537641 0.107734,-0.779445 l 0.02381,-0.09068 q 0.02381,-0.09068 0.07784,-0.173416 0.216139,-0.330959 0.287566,-0.602988 0.03175,-0.120902 0.02533,-0.219515 -0.02229,-0.03816 -0.0064,-0.09861 0.02381,-0.09068 -0.02719,-0.265613 -0.132214,-0.357809 -0.145046,-0.555034 -0.0064,-0.09861 0.01739,-0.189289 0.03174,-0.120902 0.123942,-0.225931 0.07784,-0.173416 0.17004,-0.278445 0.100133,-0.135254 0.184393,-0.210057 0.07632,-0.04458 0.221035,-0.103509 0.136774,-0.02871 0.25126,-0.09557 0.259196,-0.125798 0.403907,-0.184728 0.275069,-0.186249 0.547098,-0.114821 0.181353,0.04762 0.294318,0.10959 0.143191,0.06991 0.443924,0.27811 0.323023,0.246364 0.571243,0.408468 0.353248,0.2543 0.579179,0.378242 0.22593,0.123942 1.318941,0.637104 1.010271,0.459127 1.575097,0.768983 0.189289,0.01739 0.340416,0.05707 z"
       style="font-size:32px;line-height:1.25;writing-mode:lr-tb;direction:ltr;stroke:none;stroke-opacity:1"
       id="path1064" />
    <path
       d="m 15.25439,116.1695 q 0.219335,0.2226 0.24559,0.25815 0.10502,0.1422 0.19308,0.18704 0.05251,0.0711 0.254885,0.19634 0.22863,0.16079 0.461908,0.29068 -0.0046,0.0309 0.08806,0.0448 0.118962,0.0495 0.17612,0.0897 0.05716,0.0402 0.131275,0.17775 0.07412,0.13756 0.08178,0.29671 0.02161,0.0665 0.03392,0.19471 0.61479,0.53488 0.824588,1.45128 0.01696,0.0974 -0.0016,0.22096 -0.03253,0.21632 -0.273716,0.55926 -0.156142,0.19773 -0.417305,0.25326 -0.06645,0.0216 -0.327614,0.0771 -0.03555,0.0263 -0.09736,0.017 -0.225613,0.0293 -0.380125,0.006 -0.401732,-0.0604 -0.699833,-0.38966 -0.591552,-0.68939 -0.653116,-1.33068 -0.14057,-0.11595 -0.3692,-0.27674 l -0.02626,-0.0356 q -0.22863,-0.16079 -0.364552,-0.30763 -0.14057,-0.11595 -0.231648,-0.35085 -0.0309,-0.005 -0.08806,-0.0448 -0.295082,-0.13918 -0.461907,-0.29068 -0.171473,-0.12059 -0.319708,-0.39569 -0.02626,-0.0356 -0.05251,-0.0711 -0.02625,-0.0356 -0.05716,-0.0402 -0.233277,-0.12989 -0.338297,-0.27209 -0.07877,-0.10665 -0.200746,-0.3462 -0.05251,-0.0711 -0.100372,-0.1731 -0.21167,-0.0634 -0.325985,-0.14383 -0.114315,-0.0804 -0.162178,-0.1824 -0.131275,-0.17775 -0.222352,-0.41266 -0.330633,-0.11293 -0.488163,-0.32622 -0.07876,-0.10665 -0.117333,-0.27046 -0.106408,-0.55323 -0.178896,-0.91175 -0.01696,-0.0973 0.0016,-0.22096 l 0.0046,-0.0309 q 0.05112,-0.33993 0.357129,-0.48352 0.540914,-0.23466 1.128062,-0.14636 0.278122,0.0418 0.542302,0.17636 0.207022,0.0943 0.607125,0.37572 0.233277,0.12989 0.347592,0.21028 l 1.823247,0.2742 q 0.356887,0.14848 1.12945,0.26466 l 0.380124,-0.006 0.185415,0.0279 q 0.63501,0.19031 0.877582,0.25839 0.54858,-0.0755 1.382947,0.05 0.339927,0.0511 0.737012,0.14244 0.613403,0.12385 1.07694,0.19356 0.49444,0.0744 0.720052,0.0451 l 0.154512,0.0232 q 0.45889,0.10061 1.07694,0.19356 0.19471,-0.0339 0.349222,-0.0107 l 0.21167,0.0634 0.957977,0.14407 q 0.967272,0.0823 1.492614,0.16128 l 0.86527,0.13013 q 0.256515,-0.0246 0.534637,0.0172 0.185415,0.0279 0.489792,0.10526 0.70611,0.13779 0.767915,0.14709 0.12361,0.0186 0.190062,-0.003 0.190063,-0.003 0.344575,0.0202 0.24722,0.0372 0.639657,0.1594 0.35387,-0.0416 0.84831,0.0328 0.12361,0.0186 0.273475,0.0727 l 0.12361,0.0186 q 0.463537,0.0697 0.658247,0.0358 0.128257,-0.0123 0.251867,0.006 l 0.485145,0.13617 0.296712,-0.0818 q 0.128258,-0.0123 0.220965,0.002 l 0.587147,0.0883 0.239555,-0.12198 q 0.102002,-0.0479 0.23026,-0.0602 0.220965,0.002 0.499087,0.0435 0.154512,0.0232 0.251867,0.006 0.09736,-0.017 0.190063,-0.003 0.556244,0.0836 0.458648,0.73261 l -0.02324,0.15451 q -0.04647,0.30902 -0.321579,0.45726 l -0.01394,0.0927 q -0.04648,0.30902 -0.32158,0.45726 -0.306007,0.14358 -0.683114,0.33968 -0.168455,0.0695 -0.35387,0.0416 l -0.185414,-0.0279 q -0.154513,-0.0232 -0.268828,-0.10363 -0.09271,-0.0139 -0.149865,-0.0541 -0.09736,0.017 -0.256515,0.0246 l -0.09271,-0.0139 q -0.468185,-0.0388 -0.715405,-0.076 l -0.834367,-0.12548 q -0.190062,0.003 -0.375477,-0.0249 -0.24722,-0.0372 -0.644305,-0.12849 l -0.0309,-0.005 q -0.330633,-0.11293 -0.485145,-0.13617 l -0.12361,-0.0186 q -0.06645,0.0216 -0.132905,0.0432 -0.220965,-0.002 -0.52999,-0.0481 -0.278122,-0.0418 -0.675207,-0.13314 l -0.0309,-0.005 q -0.330633,-0.11293 -0.485145,-0.13616 l -0.154513,-0.0232 q -0.363164,0.10339 -0.672189,0.0569 -0.185415,-0.0279 -1.813952,-0.336 l -0.556245,-0.0837 q -0.618049,-0.0929 -0.905467,-0.073 -0.208652,0.12663 -0.394067,0.0988 -0.09271,-0.014 -0.180767,-0.0588 -0.744677,-0.3016 -1.888069,-0.47356 -0.432635,-0.0651 -0.993527,-0.11782 -0.622698,-0.062 -1.780032,-0.14129 -1.131079,-0.0437 -1.573009,-0.047 l -0.339927,-0.0511 q -0.401733,-0.0604 -0.84668,-0.25374 -0.190062,0.003 -0.47748,0.023 z"
       style="font-size:32px;line-height:1.25;writing-mode:lr-tb;direction:ltr;stroke:none;stroke-opacity:1"
       id="path1066" />
    <path
       d="m 26.856915,142.25687 -0.551021,-0.30312 -0.124904,-0.005 q -0.249807,-0.01 -0.429798,-0.20454 -0.06,-0.0649 -0.118768,-0.16103 -0.06245,-0.002 -0.154902,-0.0374 -0.403482,-0.0784 -0.647153,-0.24435 -0.09122,-0.0661 -0.212445,-0.16472 l -0.249807,-0.01 q -0.218581,-0.009 -0.434708,-0.0796 l -0.06245,-0.002 q -0.276124,-0.13595 -0.636107,-0.52538 -0.211218,-0.19595 -0.271215,-0.26086 -0.09245,-0.0349 -0.246125,-0.10349 -0.24858,-0.0411 -0.527159,-0.11454 -0.342257,-0.0447 -0.434708,-0.0796 -0.216127,-0.071 -0.426117,-0.29821 l -0.374711,-0.0147 q -0.37471,-0.0147 -0.548566,-0.36557 -0.02754,-0.0949 -0.145084,-0.28717 -0.148766,-0.19349 -0.267533,-0.35453 -0.06368,0.0288 -0.09491,0.0275 -0.319623,0.17508 -0.541886,0.26017 -0.189809,0.0551 -0.725559,0.15913 -0.440844,0.0765 -0.599428,0.13281 -0.127358,0.0575 -0.383301,0.20385 -0.319623,0.17509 -0.573112,0.25895 -0.253489,0.0839 -0.629427,0.10036 -0.251034,0.0214 -0.439617,0.0453 -0.221035,0.0539 -1.103951,0.23807 -1.799512,0.42966 -2.465074,0.6537 -0.571884,0.22772 -1.211129,0.57788 0.153675,0.0686 0.276124,0.13595 0.584701,0.2419 0.925731,0.31785 0.498387,0.0509 0.713287,0.15313 0.244898,0.13472 0.548566,0.36558 0.181219,0.16349 0.273669,0.1984 0.09122,0.0661 0.462252,0.17454 0.46348,0.14331 0.708378,0.27803 0.182446,0.13227 0.51734,0.36435 0.15122,0.13104 0.242444,0.19717 0.497159,0.0821 0.620836,0.11822 0.153675,0.0686 0.426117,0.29822 0.09122,0.0661 0.152447,0.0998 0.123677,0.0361 0.369802,0.13963 0.154902,0.0374 0.274897,0.16718 l 0.09,0.0974 q 0.06245,0.002 0.186128,0.0386 0.401027,0.14086 0.887142,0.50398 0.242443,0.19717 0.364892,0.26453 l 0.562066,0.0221 q 0.124904,0.005 0.217354,0.0398 0.157357,-0.0251 0.349621,-0.14263 0.541886,-0.26017 1.302353,-0.51175 0.126131,-0.0263 0.219808,-0.0226 l 0.15613,0.006 q 0.161038,-0.11877 0.288396,-0.17631 0.223491,-0.11631 0.566975,-0.10281 0.126131,-0.0263 0.315941,-0.0814 0.318395,-0.14385 1.456027,-0.44316 1.073953,-0.27053 1.422347,-0.38193 0.475752,-0.16895 2.485255,-0.37144 0.283487,-0.0514 0.596973,-0.0704 -0.247352,-0.0723 -0.464706,-0.11208 -0.557157,-0.147 -0.649608,-0.1819 l -0.03123,-0.001 q -0.218581,-0.009 -0.372256,-0.0772 -0.154902,-0.0374 -0.396118,-0.26576 l -0.15613,-0.006 q -0.156129,-0.006 -0.278578,-0.0735 z m -15.700893,-3.15029 0.161038,-0.11876 q 0.161039,-0.11877 0.37962,-0.11018 l 0.312259,0.0123 q 0.18981,-0.0551 0.539431,-0.19772 0.476979,-0.20017 0.668016,-0.28648 0.253489,-0.0839 0.596974,-0.0704 l 0.06245,0.002 q 0.281033,0.0111 0.822918,-0.24912 0.127358,-0.0576 0.283488,-0.0514 l 0.593292,0.0233 q 0.22349,-0.11631 0.287169,-0.14508 0.127358,-0.0576 0.283488,-0.0514 l 0.37471,0.0147 q 0.127358,-0.0575 0.161039,-0.11877 0.161038,-0.11877 0.349621,-0.14263 0.251034,-0.0214 0.378392,-0.079 0.225945,-0.17877 0.353303,-0.23631 0.158584,-0.0563 0.347167,-0.0802 0.06491,-0.06 0.129812,-0.11999 0.324532,-0.29999 0.548022,-0.4163 0.191037,-0.0863 0.505751,-0.13649 0.06368,-0.0288 0.128585,-0.0888 0.195946,-0.21122 0.445754,-0.2014 0.09368,0.004 0.186128,0.0386 0.743285,0.18558 1.127131,0.7636 0.177537,0.25717 0.267533,0.35453 0.06122,0.0337 0.184901,0.0698 0.307349,0.13717 0.638562,0.46293 0.09368,0.004 0.154902,0.0374 0.403482,0.0784 0.585928,0.21068 0.153675,0.0686 0.304896,0.19963 0.122449,0.0674 0.521022,0.27067 0.459797,0.23699 1.654289,0.87814 1.175539,0.32767 1.632882,0.62711 0.303668,0.23086 0.457343,0.29944 0.153675,0.0686 0.619608,0.14945 0.652062,0.11945 1.018182,0.35276 0.06123,0.0337 0.121222,0.0986 l 0.187355,0.007 q 0.124904,0.005 0.217354,0.0398 1.413073,0.64975 3.018411,1.18195 0.463479,0.14331 0.44507,0.6117 l -0.0012,0.0312 q -0.0037,0.0937 -0.03859,0.18613 -0.0025,0.0625 -0.03736,0.1549 -0.01104,0.28103 -0.07963,0.43471 -0.104723,0.27735 -0.390665,0.39121 -0.253489,0.0839 -0.815555,0.0618 -0.188583,0.0239 -0.313486,0.019 -0.03245,0.03 -0.06613,0.0912 -0.163493,0.18122 -0.415755,0.23385 -0.188582,0.0239 -0.283487,0.0514 -0.257171,0.17754 -0.416982,0.26508 -0.127358,0.0575 -0.283488,0.0514 l -0.09368,-0.004 q -0.187356,-0.007 -0.372257,-0.0772 l -0.03123,-0.001 q -1.612157,0.43702 -2.548934,0.4002 l -0.06245,-0.002 q -0.159811,0.0875 -0.317168,0.11263 -0.689424,0.0354 -1.548477,0.40825 -0.985185,0.39912 -1.613384,0.46825 -0.375938,0.0165 -0.503296,0.074 -0.09491,0.0275 -0.383302,0.20386 -0.73415,0.37771 -1.297443,0.38684 -0.258398,0.20877 -0.644154,0.47507 -0.128585,0.0888 -0.289624,0.20754 -0.161038,0.11876 -0.257171,0.17753 -0.06491,0.06 -0.222263,0.0851 -0.158584,0.0563 -0.345939,0.0489 l -0.03123,-0.001 q -0.218581,-0.009 -0.369802,-0.13963 -0.06122,-0.0337 -0.153675,-0.0686 -0.03122,-0.001 -0.06122,-0.0337 l -0.184901,-0.0698 q -0.184901,-0.0698 -0.304895,-0.19963 -0.151221,-0.13104 -0.23508,-0.38453 -0.09122,-0.0661 -0.246126,-0.10349 -0.402254,-0.10963 -0.647152,-0.24435 -0.183674,-0.10105 -0.269988,-0.29208 -0.02877,-0.0637 -0.08877,-0.12859 -0.06,-0.0649 -0.118767,-0.16104 -0.184901,-0.0698 -0.431026,-0.17331 -0.525931,-0.14577 -0.772057,-0.24926 -0.244898,-0.13472 -0.578564,-0.39803 -0.212445,-0.16472 -0.364893,-0.26453 -0.183674,-0.10105 -0.768375,-0.34294 -0.708377,-0.27804 -0.922049,-0.41153 -0.182447,-0.13227 -0.487342,-0.3319 -0.121222,-0.0986 -0.243671,-0.16595 l -0.249807,-0.01 q -0.249807,-0.01 -0.429799,-0.20454 l -0.06,-0.0649 q -0.03123,-0.001 -0.09245,-0.0349 -0.152447,-0.0998 -0.647152,-0.24436 -0.649608,-0.1819 -0.9269591,-0.28662 -0.09245,-0.0349 -0.4971598,-0.0821 -0.7181955,-0.0282 -0.9894104,-0.28908 -0.2112177,-0.19595 -0.2913955,-0.54311 -0.2424435,-0.19718 -0.2301709,-0.50944 l 0.00368,-0.0937 q 0.00859,-0.21859 0.1720838,-0.3998 l 0.00245,-0.0625 q 0.014727,-0.37471 0.3655755,-0.54856 0.1910371,-0.0863 1.5570684,-0.62684 l 0.032453,-0.03 q 0.063679,-0.0288 0.1298124,-0.12 0.323304,-0.26876 0.546795,-0.38507 0.127358,-0.0575 0.283487,-0.0514 z"
       style="font-size:32px;line-height:1.25;writing-mode:lr-tb;direction:ltr;stroke:none;stroke-opacity:1"
       id="path1068" />
    <path
       d="m 17.359311,197.12665 q 0.136567,0.0297 0.371699,0.0665 0.439983,0.0813 0.622275,0.16382 0.220295,0.10507 0.509478,0.35383 0.04572,0.0528 0.09145,0.10568 0.584272,0.14126 0.925691,0.21545 0.248757,-0.28919 0.641198,-0.64726 0.543241,-0.52553 0.716599,-0.73098 0.150799,-0.16746 0.308714,-0.43348 0.112796,-0.19001 0.180474,-0.30402 l -0.211967,0.0541 q -0.211967,0.054 -0.409096,0.0398 l -0.06056,0.0154 q -0.08312,0.0534 -0.173964,0.0766 l -0.181686,0.0463 q -0.211967,0.0541 -0.492217,0.0933 l -0.06056,0.0154 q -0.09857,-0.007 -0.189408,0.0161 -0.181686,0.0463 -0.317647,0.1455 -0.05284,0.0457 -0.135962,0.0992 -0.204245,0.0843 -0.446493,0.14611 -0.363372,0.0927 -0.878754,0.0951 l -0.181686,0.0463 q -0.294482,0.23634 -0.445887,0.27495 z m 0.914346,5.8621 q 0.461936,-0.0856 0.946432,-0.20909 l 0.726743,-0.18533 q 2.195068,-0.62424 2.346473,-0.66285 l 1.362644,-0.34748 q -0.333697,-0.0439 -1.048026,-0.44225 -0.257691,0.001 -0.531432,-0.18698 -1.102078,-0.65422 -1.473777,-0.72069 l -0.038,-0.0226 q -0.166242,0.10689 -0.430443,0.33552 -0.188802,0.14489 -0.294483,0.23634 -0.04512,0.076 -0.09024,0.15201 -0.16503,0.36458 -0.398951,0.58548 -0.128239,0.12946 -0.452397,0.50237 -0.241036,0.31946 -0.444675,0.53264 l -0.06707,0.24285 q -0.01484,0.0683 -0.06768,0.11401 z m 6.191385,-9.86708 q 0.151404,-0.0386 0.409096,-0.0398 l 0.181686,-0.0463 q 0.135961,-0.0992 0.287366,-0.13778 0.242248,-0.0618 0.47738,-0.025 0.249363,-0.16034 0.824702,-0.30705 l 0.393653,-0.10038 q 0.371093,-0.0624 0.643622,-0.13188 0.30281,-0.0772 0.537336,-0.16927 l 0.333091,-0.0849 q 0.93871,-0.23937 1.651222,-0.22756 0.181686,-0.0463 0.681019,-0.23816 0.499333,-0.19183 0.741581,-0.25361 0.151405,-0.0386 0.378815,-0.0321 0.181686,-0.0463 0.734465,-0.15504 0.401375,-0.0701 0.613342,-0.12415 -0.0077,-0.0303 0.02256,-0.038 0.158521,-0.13717 0.43105,-0.20667 0.211966,-0.054 0.568222,-0.0481 0.409097,-0.0398 1.386415,-0.12779 0.378816,-0.0321 0.584878,0.27011 0.04572,0.0528 0.09145,0.10568 0.24346,0.19592 0.396682,0.54385 l 0.03089,0.12112 q 0.06949,0.27253 -0.126422,0.51599 -0.391835,0.48692 -1.027736,0.64907 -0.211967,0.054 -0.431655,0.0778 -0.545664,0.0101 -0.697069,0.0487 -0.03028,0.008 -0.05284,0.0457 -0.219083,0.15262 -0.491612,0.22212 -0.181685,0.0463 -0.477379,0.025 l -0.386537,0.002 q -0.09084,0.0232 -0.242248,0.0618 -0.113402,0.0612 -0.204245,0.0843 -0.272529,0.0695 -0.643622,0.13188 -0.772468,0.13248 -1.068162,0.11113 l -0.03028,0.008 q -0.151405,0.0386 -0.37821,0.16095 l -0.6359,0.16215 q -0.30281,0.0772 -0.431656,0.0778 -0.09084,0.0232 -0.287972,0.009 -0.159126,0.008 -0.333696,-0.0439 -0.173965,0.0766 -0.469053,0.18411 -0.416212,0.13839 -0.559895,0.20728 -0.08312,0.0534 -0.173964,0.0766 l -0.06056,0.0154 q -0.151405,0.0386 -0.386537,0.002 -0.279645,0.16806 -0.945826,0.33794 l -0.333091,0.0849 q -0.492217,0.0933 -0.863311,0.15565 0.04815,0.56822 -0.466629,0.69949 l -0.03028,0.008 q -0.151405,0.0386 -0.460725,0.34324 -0.0374,0.10629 -0.05223,0.17457 -0.06647,0.3717 -0.429837,0.46436 -0.06056,0.0154 -0.08312,0.0534 l -0.06056,0.0154 q -0.09796,0.12173 -0.233314,0.34975 -0.308108,0.56231 -0.640593,0.7761 -0.188802,0.14489 -0.302204,0.20606 -0.10568,0.0915 -0.407278,0.42636 0.204851,0.0445 0.409702,0.089 0.235131,0.0368 0.372305,0.19532 0.04572,0.0528 0.129451,0.12824 0.06828,0.0148 0.136568,0.0297 0.394258,0.0285 0.568828,0.0807 0.17457,0.0522 0.273741,0.18819 l 0.09145,0.10568 q 0.06828,0.0148 0.17457,0.0522 l 0.303416,0.0516 q 0.136567,0.0297 0.258297,0.12763 0.24346,0.19592 0.509479,0.35383 0.515988,0.12643 0.759448,0.32234 0.114008,0.0677 0.205456,0.17336 l 0.09084,-0.0232 q 0.499939,-0.063 0.750515,0.0344 0.182292,0.0825 0.39547,0.28616 l 0.333091,-0.0849 q 0.181686,-0.0463 0.447099,-0.0173 0.121124,-0.0309 0.295088,-0.1075 0.362766,-0.22151 0.605014,-0.28328 0.211966,-0.054 0.409096,-0.0398 0.128845,-6.1e-4 0.265413,0.0291 0.33309,-0.0849 0.802143,-0.26905 0.121124,-0.0309 0.249969,-0.0315 0.22741,0.007 1.06044,-0.14141 0.24997,-0.0315 0.461937,-0.0855 0.454214,-0.11583 0.76414,-0.29161 0.347928,-0.15322 0.650738,-0.23044 0.272529,-0.0695 0.598504,-0.0559 0.06828,0.0148 0.128846,-6e-4 0.226804,-0.12234 0.347928,-0.15322 0.242248,-0.0618 0.666787,-0.041 0.09857,0.007 0.189408,-0.0161 0.121124,-0.0309 0.204245,-0.0843 0.264201,-0.22862 0.506449,-0.29039 0.484496,-0.12355 0.917969,0.18516 0.114008,0.0677 0.167454,0.1508 0.259509,0.38533 0.352169,0.7487 0.05405,0.21197 0.03982,0.40909 -0.01363,0.32598 -0.26299,0.48632 -0.498727,0.32067 -0.771256,0.39017 l -0.09084,0.0232 q -0.121124,0.0309 -0.219689,0.0238 -0.197129,-0.0142 -0.34914,-0.10447 -0.219082,0.15261 -0.370487,0.19122 -0.151405,0.0386 -0.287973,0.009 -0.06828,-0.0148 -0.235132,-0.0368 l -0.09084,0.0232 q -0.08312,0.0534 -0.204246,0.0843 l -0.151405,0.0386 q -0.272528,0.0695 -0.833029,0.14793 -0.749909,0.0945 -0.871033,0.12536 -0.151405,0.0386 -0.628179,0.19244 -0.325369,0.11522 -0.628179,0.19243 -0.605619,0.15444 -1.030159,0.1337 -0.386537,0.002 -0.659065,0.0713 -0.242248,0.0618 -0.37821,0.16094 0.0077,0.0303 -0.02256,0.038 -0.302204,0.20606 -0.726138,0.31416 -0.454214,0.11583 -1.106164,0.0886 -0.196524,0.11461 -0.408491,0.16866 -0.363371,0.0927 -1.023043,0.0351 -0.02256,0.038 -0.08312,0.0534 -0.309926,0.17578 -0.582455,0.24527 l -0.06056,0.0154 q -0.651344,0.10159 -0.840752,0.11764 -0.03028,0.008 -0.09857,-0.007 l -0.121124,0.0309 q -0.181685,0.0463 -0.537336,0.16927 -0.567616,0.177 -0.7113,0.24589 l -0.03028,0.008 q -0.196523,0.11461 -0.347928,0.15322 l -0.03028,0.008 q -0.09084,0.0232 -0.189407,0.0161 -0.128846,6.1e-4 -0.273135,-0.0593 -0.249364,0.16034 -0.552174,0.23756 -0.272528,0.0695 -0.613341,0.12415 -0.03028,0.008 -0.06828,-0.0148 -0.348534,0.0244 -0.560501,0.0784 l -0.09084,0.0232 q -0.05284,0.0457 -0.10568,0.0915 -0.204245,0.0843 -0.385931,0.13066 -0.121124,0.0309 -0.310532,0.0469 l -0.545057,0.139 q -0.09084,0.0232 -0.189408,0.016 -0.22741,-0.007 -0.749908,0.0945 -0.666182,0.16988 -0.992157,0.15625 l -0.06056,0.0154 q -0.06828,-0.0148 -0.189407,0.0161 -0.06056,0.0154 -0.204246,0.0843 l -0.363371,0.0927 q -0.363372,0.0927 -0.697069,0.0488 -0.09856,-0.007 -0.189407,0.0161 -0.08312,0.0534 -0.173964,0.0766 l -0.09084,0.0232 q -0.545058,0.13899 -0.925085,-0.0866 -0.07601,-0.0451 -0.152011,-0.0902 -0.296299,-0.15019 -0.358073,-0.39244 -0.03861,-0.15141 0.01363,-0.32598 0.07419,-0.34141 0.518863,-0.87406 0.150799,-0.16745 0.332485,-0.21378 l 0.09084,-0.0232 q 0.406067,-0.68404 0.83651,-1.01956 0.08312,-0.0534 0.204245,-0.0843 l 0.03028,-0.008 q 0.05996,-0.14429 0.105075,-0.2203 0.08251,-0.18229 0.286761,-0.26662 l 0.08312,-0.0534 q 0.02256,-0.038 0.165031,-0.36458 0.119912,-0.28858 0.422722,-0.3658 l 0.03028,-0.008 q 0.429837,-0.46436 0.466628,-0.69949 0.05102,-0.43226 0.474957,-0.54037 0.121124,-0.0309 0.234526,-0.0921 -0.03028,0.008 -0.06828,-0.0148 -0.257691,0.001 -0.432867,-0.17987 -0.076,-0.0451 -0.39547,-0.28615 l -0.06056,0.0154 q -0.19713,-0.0142 -0.333697,-0.0439 -0.106286,-0.0374 -0.220294,-0.10507 -0.228016,-0.13536 -0.501757,-0.32355 -0.204851,-0.0445 -0.447705,-0.11159 -0.417423,-0.1193 -0.591993,-0.17154 -0.273135,-0.0594 -0.546876,-0.24754 -0.038,-0.0226 -0.07601,-0.0451 l -0.09084,0.0232 q -0.09084,0.0232 -0.189407,0.0161 -0.128846,6.1e-4 -0.606832,-0.10325 -0.568828,-0.0807 -0.690558,-0.17866 -0.228016,-0.13536 -0.28979,-0.3776 l -0.03089,-0.12113 q -0.03331,-0.6365 0.328244,-1.1157 0.331273,-0.47148 0.967174,-0.63363 0.545057,-0.13899 1.333575,-0.0821 0.03028,-0.008 0.06828,0.0148 l 0.121124,-0.0309 q 0.151405,-0.0386 0.416212,-0.13838 0.552174,-0.23756 0.726138,-0.31417 0.196523,-0.11461 0.347928,-0.15322 0.242248,-0.0618 0.598504,-0.0559 l 0.03028,-0.008 q 0.09856,0.007 0.159127,-0.008 l 0.03028,-0.008 q 0.294482,-0.23634 1.77825,-0.61471 1.362644,-0.34748 1.787183,-0.32673 l 0.211967,-0.0541 q 0.151405,-0.0386 0.35565,-0.12294 0.204245,-0.0843 0.416212,-0.13838 0.423934,-0.10811 0.947038,-0.0802 0.287972,-0.009 0.439377,-0.0475 0.08312,-0.0534 0.166243,-0.10689 0.113402,-0.0612 0.196523,-0.11462 z"
       style="font-size:32px;line-height:1.25;writing-mode:lr-tb;direction:ltr;stroke:none;stroke-opacity:1"
       id="path1070" />
    <path
       d="m 29.230046,224.28828 q 0.181715,-0.0558 0.475182,-0.0276 l 0.02796,-0.014 q 0.558973,0.0702 1.67736,-0.48808 0.167758,-0.0838 0.391347,-0.0556 0.167758,-0.0838 0.335472,-0.0976 0.181715,-0.0558 0.950408,-0.12518 0.726775,-0.0834 0.93645,-0.15314 0.363432,-0.11157 0.698815,-0.0694 l 0.05592,-0.0279 q 0.13993,-0.27942 0.922933,-0.87987 0.06996,-0.13971 0.181848,-0.26542 0.09792,-0.15366 0.237723,-0.22345 l 0.08388,-0.0419 0.251593,-0.0557 q 0.139843,-0.13967 0.363564,-0.32121 0.307601,-0.22341 0.377522,-0.29324 0.05596,-0.0978 0.09793,-0.15367 0.06996,-0.13971 0.16789,-0.29338 0.125885,-0.16762 0.321602,-0.26533 l 0.223678,-0.11166 q 0.08388,-0.0419 0.237723,-0.22346 0.06992,-0.0698 0.111927,-0.19558 0.05596,-0.0978 0.09792,-0.15367 0.04196,-0.0559 0.111883,-0.12571 0.08388,-0.0419 0.223677,-0.11166 l 0.195718,-0.0977 q 0.06997,-0.13971 0.251813,-0.40513 0.08392,-0.11175 0.33556,-0.23737 l 0.209675,-0.0697 0.08388,-0.0419 q 0.125885,-0.16763 0.391612,-0.47492 0.321691,-0.40508 0.475535,-0.58667 0.223766,-0.25141 0.64316,-0.46078 0.06992,-0.0698 0.153801,-0.11171 l 0.08401,-0.2515 q 0.028,-0.0838 0.08397,-0.18163 0.111883,-0.12571 0.391524,-0.33516 l 0.09788,-0.0838 q 0.08401,-0.25151 0.153976,-0.39122 0.125885,-0.16762 0.419483,-0.34912 0.02818,-0.36334 0.335737,-0.51688 l 0.307556,-0.15353 q 0.167758,-0.0837 0.34943,-0.0697 0.517055,0.0562 0.852351,0.23812 0.195585,0.11193 0.279332,0.27969 0.0977,0.19571 0.04165,0.43326 -0.0981,0.43318 -0.02831,0.57297 0.04192,0.014 0.06983,0.0699 0.139666,0.13984 0.209455,0.27964 0.04187,0.0839 0.11153,0.43331 l 0.01396,0.028 q 0.08375,0.16775 0.335119,0.4614 0.05583,0.11183 0.09766,0.26559 0.06979,0.1398 0.307027,0.68499 l 0.01396,0.028 q 0.0837,0.23764 0.153491,0.37743 l 0.08375,0.16776 0.04192,0.014 q 0.08379,0.0979 0.181583,0.15385 0.11175,0.0839 0.181539,0.22372 l 0.02792,0.0559 q 0.12562,0.25164 0.125355,0.6709 -0.014,0.0419 -0.01405,0.11179 0.530705,0.57333 0.68424,0.88089 0.0977,0.19571 0.04165,0.43326 l -0.05605,0.23755 q -0.07005,0.27946 -0.321691,0.40508 -0.139798,0.0698 -0.670988,0.26511 -0.209675,0.0697 -0.419262,-2.6e-4 -0.377257,-0.12602 -0.586624,-0.54541 -0.0977,-0.19572 -0.153403,-0.51719 -0.09762,-0.33547 -0.181363,-0.50323 l -0.02792,-0.0559 q -0.209455,-0.27964 -0.572357,-1.00659 -0.362903,-0.72695 -0.446605,-0.96459 l -0.04187,-0.0839 q -0.05583,-0.11184 -0.181496,-0.2936 -0.04187,-0.0839 -0.06974,-0.20967 -0.04179,-0.22364 -0.111574,-0.36343 l -0.01396,-0.028 q -0.06983,-0.0699 -0.167582,-0.19577 -0.111883,0.12571 -0.195762,0.16759 -0.09788,0.0838 -0.293598,0.18149 -0.111839,0.0558 -0.18176,0.12567 -0.06992,0.0698 -0.265727,0.30729 -0.293731,0.39112 -0.433573,0.53079 -0.181804,0.19554 -0.461401,0.33512 l -0.08388,0.0419 q -0.04196,0.0559 -0.09792,0.15367 -0.111927,0.19559 -0.16789,0.29338 -0.06992,0.0698 -0.139843,0.13966 -0.209719,0.13963 -0.824832,0.4467 0.01396,0.028 -0.014,0.0419 -0.111971,0.26547 -0.195894,0.37722 -0.08392,0.11175 -0.223721,0.18154 l -0.195718,0.0977 q -0.05596,0.0978 -0.08397,0.18163 -0.08397,0.18163 -0.307645,0.29329 -0.08401,0.2515 -0.237811,0.36321 -0.139843,0.13967 -0.559238,0.34903 -0.181759,0.12567 -0.293598,0.1815 l -0.05601,0.16767 q -0.04205,0.19563 -0.223809,0.32129 -0.1538,0.11171 -0.279641,0.20946 -0.07001,0.20958 -0.153932,0.32133 -0.08392,0.11175 -0.223722,0.18154 l -0.05592,0.0279 q -0.111839,0.0558 -0.293555,0.11162 -0.09792,0.15366 -0.195938,0.44709 -0.028,0.0838 -0.06996,0.13971 -0.125929,0.2375 -0.517452,0.57266 -0.391524,0.33517 -0.503363,0.391 -0.223677,0.11166 -0.433264,0.0417 -0.517011,-0.12611 -1.145949,-0.0566 l -0.04192,-0.014 q -0.363387,0.0417 -0.587021,0.0835 -0.26555,0.0278 -0.740776,0.12532 -0.475226,0.0975 -0.69886,0.13931 -0.237635,0.0837 -0.824744,0.30694 -0.05592,0.0279 -0.09784,0.0139 -0.34943,0.0697 -1.327842,0.27867 -0.978412,0.20902 -1.327841,0.27867 l -0.05592,0.0279 q -0.167714,0.0139 -0.349429,0.0697 -0.06992,0.0698 -0.153801,0.1117 l -0.02796,0.014 q -0.475314,0.23728 -1.383805,0.37646 -0.61498,0.0974 -1.244051,0.37655 0.05579,0.18172 0.08366,0.30752 0.04192,0.014 0.06983,0.0699 0.13971,0.07 0.195585,0.11192 0.11175,0.0839 0.181539,0.22373 l 0.01396,0.028 q 0.08375,0.16775 0.11153,0.4333 l 0.334987,0.67104 q 0.223368,0.37747 0.321117,0.50331 0.125708,0.11189 0.447002,0.3357 0.461004,0.29377 0.670458,0.57341 l 0.04187,0.0839 q 0.08375,0.16776 0.05565,0.39135 -0.04209,0.2655 -0.265947,0.65668 -0.209852,0.34925 -0.363696,0.53083 -0.09788,0.0838 -0.18176,0.12567 -0.195718,0.0977 -0.433265,0.0417 -0.475093,-0.1121 -0.880046,-0.64343 -0.125664,-0.18176 -0.195497,-0.25168 -0.405172,-0.18193 -0.502877,-0.37765 l -0.08361,-0.37739 q -0.167582,-0.19576 -0.474785,-0.60124 -0.321161,-0.43344 -0.432824,-0.65712 l -0.04187,-0.0839 q -0.04187,-0.0839 -0.05579,-0.18172 -0.05566,-0.39134 -0.181275,-0.64298 -0.05583,-0.11184 -0.125664,-0.18176 -0.04192,-0.014 -0.06983,-0.0699 -0.04187,-0.0839 -0.195541,-0.18181 -0.335296,-0.18189 -0.474962,-0.32173 -0.06983,-0.0699 -0.111706,-0.1538 -0.05583,-0.11184 -0.05574,-0.25159 -0.05579,-0.18172 -0.0557,-0.32147 -0.01387,-0.16772 1.77e-4,-0.27951 0.028,-0.0838 0.09797,-0.22355 0.08392,-0.11175 0.125929,-0.2375 0.11197,-0.26546 0.181936,-0.40517 0.08405,-0.32138 0.335692,-0.447 0.167758,-0.0838 0.293555,-0.11162 0.153756,-0.0418 0.517143,-0.0835 0.405305,-0.0277 0.698815,-0.0694 0.433265,-0.0417 0.684858,-0.0974 0.251593,-0.0557 1.411764,-0.39042 1.062335,-0.32077 1.691318,-0.46012 0.1538,-0.11171 0.293598,-0.1815 z"
       style="font-size:32px;line-height:1.25;writing-mode:lr-tb;direction:ltr;stroke:none;stroke-opacity:1"
       id="path1072" />
    <path
       d="m 54.285221,243.04089 0.256607,-0.22873 q 0.233279,-0.20794 0.329125,-0.33523 0.310866,-0.40269 0.870736,-0.90173 0.606525,-0.54063 0.992962,-0.71764 l 0.186623,-0.16635 q 0.15264,-0.34536 0.292607,-0.47013 0.09331,-0.0832 0.274866,-0.16127 0.09331,-0.0832 0.189158,-0.21047 0.194226,-0.29872 0.520817,-0.58983 l 0.209951,-0.18714 q 0.116639,-0.10397 0.251538,-0.14048 0.158226,-0.0573 0.48787,-0.0163 0.370712,-0.28857 0.731806,-0.0244 0.298712,0.19422 0.428542,0.24595 0.08571,0.0492 0.168883,0.1425 0.103968,0.11664 0.158745,0.31899 0.03398,0.17902 0.0056,0.28805 -0.01267,0.22061 -0.155174,0.38949 -0.282469,0.29365 -0.541092,0.9428 -0.276881,0.5817 -0.411261,0.99452 0.03652,0.13489 0.05478,0.20234 0.09383,0.29313 -0.09786,0.54772 -0.165829,0.18968 -0.290072,0.42601 -0.126777,0.28045 -0.250501,0.89308 -0.133861,0.78912 -0.477673,1.76538 -0.186105,0.54265 -0.222105,0.78405 0.132884,0.3839 -0.170379,0.65422 -0.04666,0.0416 -0.119174,0.14809 -0.142502,0.16888 -0.305797,0.31443 -0.256607,0.22873 -0.583716,0.14354 -0.04412,-0.003 -0.06491,-0.0259 -0.264729,-0.0152 -0.431077,-0.20183 -0.540633,-0.60652 -0.507686,-1.1801 0.01267,-0.22061 0.02028,-0.35297 0.03093,-0.15316 0.136914,-0.45694 0.07505,-0.15063 0.103449,-0.25966 l 0.03548,-0.6177 q 0.036,-0.2414 0.222623,-0.40775 l 0.06998,-0.0624 q -0.04971,-0.29059 0.02788,-0.48534 0.05172,-0.12983 0.14757,-0.25713 0.04919,-0.0857 0.147571,-0.25712 0.02586,-0.0649 0.103449,-0.25966 l -0.699837,0.62381 q -0.243417,0.38442 -0.639991,0.73791 -0.186623,0.16635 -0.440696,0.35095 -0.461489,0.32763 -0.951375,0.7643 l -0.303263,0.27031 q -0.329125,0.33523 -0.60906,0.58476 -0.279934,0.24952 -0.510679,0.41333 l -0.349919,0.3119 q -0.145036,0.21301 -0.215019,0.27539 -0.233279,0.20793 -0.614648,0.2967 -0.06745,0.0183 -0.249003,0.0964 l -0.04666,0.0416 q -0.186623,0.16635 -0.572542,0.71965 l -0.06998,0.0624 q -0.11664,0.10397 -0.274866,0.16128 -0.07252,0.1065 -0.16583,0.18968 -0.186623,0.16635 -0.549732,0.32256 l -1.516314,1.35158 q -0.05426,0.17395 -0.194226,0.29871 l -0.02333,0.0208 q -0.11664,0.10397 -0.479749,0.26018 -0.184088,0.12223 -0.274866,0.16128 -0.0025,0.0441 -0.04919,0.0857 -0.02586,0.0649 -0.04919,0.0857 -0.121708,0.19221 -0.261676,0.31697 -0.116639,0.10397 -0.321522,0.20287 -0.04666,0.0416 -0.09078,0.039 -0.134899,0.0365 -0.204882,0.0989 -0.08772,0.37123 -0.274348,0.53758 -0.09331,0.0832 -0.528938,0.34589 -0.181555,0.0781 -0.274866,0.16127 -0.124243,0.23634 -0.427506,0.50665 -0.209951,0.18714 -0.404177,0.48586 -0.266744,0.40521 -0.64506,0.82615 l -0.06998,0.0624 q -0.139968,0.12476 -0.339781,0.13542 -0.378834,0.0446 -1.103037,-0.0634 -0.218072,-0.0568 -0.342834,-0.19676 -0.124761,-0.13997 -0.177004,-0.38644 -0.08675,-0.80179 0.158686,-1.60663 0.08266,-0.28299 0.26876,-0.82563 0.181036,-0.45441 0.235295,-0.62836 0.0051,-0.0882 -5.19e-4,-0.3763 -0.01624,-0.48787 0.06641,-0.77086 0.05426,-0.17395 0.203845,-0.8515 0.17038,-0.65421 0.234776,-1.00465 0.06186,-0.30632 0.113068,-0.81245 0.0045,-0.46454 -0.0269,-0.68768 -0.08369,-0.46961 0.141464,-0.92148 l 0.0284,-0.10904 q -0.02385,-0.3555 0.162777,-0.52185 0.116639,-0.10397 0.274866,-0.16128 l 0.609578,-0.20846 q 0.383903,-0.13288 0.654219,0.17038 l 0.332697,0.37325 q 0.124761,0.13997 0.135417,0.33978 0.128333,0.84845 -0.301707,1.39922 -0.114046,1.98546 -0.610497,3.30709 l 0.01066,0.19981 q -0.036,0.2414 -0.06947,0.43868 -0.0025,0.0441 -0.0051,0.0882 l 0.55987,-0.49904 q 0.254072,-0.18461 0.534007,-0.43413 0.279935,-0.24952 0.60906,-0.58475 l 0.44323,-0.39508 q 0.419902,-0.37429 0.603991,-0.49651 0.04412,0.003 0.06745,-0.0183 l 0.04666,-0.0416 q 0.256607,-0.22873 0.777424,-0.81855 0.331659,-0.37935 0.65825,-0.67046 0.536542,-0.47825 1.127861,-0.75416 0.412299,-0.24192 0.598922,-0.40826 l 0.11664,-0.10397 q 0.170898,-0.27792 0.450833,-0.52744 0.186623,-0.16635 0.39404,-0.30937 0.438162,-0.30684 0.6897,-0.44732 l 0.04666,-0.0416 q 0.116639,-0.10397 0.305797,-0.31444 0.215019,-0.27538 0.448298,-0.48332 0.186624,-0.16635 0.417368,-0.33016 0.207417,-0.14302 0.34485,-0.22366 0.129311,-0.32458 0.315935,-0.49092 0.06998,-0.0624 0.344849,-0.22366 z"
       style="font-size:32px;line-height:1.25;writing-mode:lr-tb;direction:ltr;stroke:none;stroke-opacity:1"
       id="path1074" />
    <path
       d="m 77.003636,260.87286 0.152978,-0.30783 q 0.13907,-0.27985 0.18062,-0.43369 0.138558,-0.48948 0.472328,-1.16111 0.361583,-0.72761 0.654314,-1.03579 l 0.111257,-0.22388 q 0.01305,-0.37737 0.0965,-0.54528 0.05563,-0.11194 0.19504,-0.25203 0.05563,-0.11194 0.09718,-0.26577 0.06902,-0.34956 0.263721,-0.74135 l 0.125164,-0.25186 q 0.06954,-0.13993 0.181133,-0.22405 0.125505,-0.11211 0.446734,-0.19675 0.236591,-0.40587 0.670101,-0.29512 0.349555,0.069 0.489309,0.0687 0.09786,0.0137 0.209802,0.0694 0.139924,0.0695 0.266113,0.23693 0.0982,0.15349 0.112452,0.26526 0.07039,0.20946 0.001,0.41926 -0.152807,0.37772 -0.151098,1.07648 -0.04036,0.64298 -0.01135,1.07614 0.08413,0.1116 0.126188,0.1674 0.196237,0.2371 0.113136,0.54477 -0.08327,0.23778 -0.110573,0.50338 -0.01322,0.3075 0.100083,0.92214 0.169617,0.78221 0.214072,1.81629 0.02935,0.57292 0.08583,0.81037 0.266284,0.3068 0.08549,0.67061 -0.02781,0.056 -0.05546,0.18182 -0.06936,0.2098 -0.166714,0.40569 -0.152978,0.30784 -0.488284,0.35058 -0.04189,0.0141 -0.06988,1.7e-4 -0.251352,0.0845 -0.475232,-0.0268 -0.727608,-0.36158 -0.91062,-0.90618 -0.07039,-0.20946 -0.112623,-0.33513 -0.02833,-0.15366 -0.04309,-0.47506 0.01356,-0.16774 -6.83e-4,-0.27951 l -0.197091,-0.58649 q -0.05648,-0.23744 0.05477,-0.46132 l 0.04172,-0.084 q -0.154344,-0.25118 -0.154856,-0.46081 -3.42e-4,-0.13975 0.04121,-0.29358 0.01374,-0.0979 0.04121,-0.29359 -1.71e-4,-0.0699 -6.83e-4,-0.27951 l -0.417212,0.83955 q -0.08276,0.44742 -0.319179,0.92316 -0.111256,0.22388 -0.278312,0.48982 -0.306296,0.47592 -0.598344,1.0636 l -0.180792,0.36381 q -0.180621,0.43368 -0.347506,0.7695 -0.166884,0.33582 -0.320033,0.57377 l -0.208605,0.41978 q -0.05529,0.25169 -0.09701,0.33564 -0.139071,0.27985 -0.459958,0.50425 -0.0558,0.0421 -0.195211,0.18215 l -0.02781,0.056 q -0.111256,0.22388 -0.26338,0.8811 l -0.04172,0.084 q -0.06954,0.13992 -0.19504,0.25203 -0.02764,0.12585 -0.08327,0.23779 -0.111256,0.22388 -0.390081,0.50407 l -0.903958,1.81902 q 0.01442,0.18165 -0.06902,0.34956 l -0.01391,0.028 q -0.06954,0.13993 -0.348359,0.42012 -0.125335,0.18198 -0.195041,0.25203 0.01408,0.0419 -0.01374,0.0979 1.71e-4,0.0699 -0.01374,0.0979 -0.04138,0.2237 -0.124822,0.39161 -0.06954,0.13993 -0.222854,0.30801 -0.02781,0.056 -0.06971,0.0701 -0.111599,0.0841 -0.15332,0.16808 0.05682,0.3772 -0.05443,0.60107 -0.05563,0.11194 -0.362096,0.51798 -0.139412,0.1401 -0.19504,0.25204 -0.0273,0.2656 -0.208094,0.6294 -0.125163,0.25187 -0.194186,0.60142 -0.09667,0.4754 -0.291023,1.00695 l -0.04172,0.084 q -0.08344,0.16791 -0.264917,0.25221 -0.334965,0.1825 -1.0473,0.35194 -0.223538,0.0285 -0.391447,-0.0549 -0.16791,-0.0834 -0.308176,-0.29273 -0.379078,-0.71182 -0.451005,-1.55018 -0.02867,-0.29341 -0.05802,-0.86633 -0.0012,-0.48914 -0.01561,-0.67079 -0.02816,-0.0838 -0.140608,-0.34904 -0.196749,-0.44673 -0.225417,-0.74015 -0.01442,-0.18164 -0.127897,-0.86616 -0.08549,-0.67062 -0.156223,-1.01983 -0.05665,-0.30732 -0.197603,-0.79612 -0.168764,-0.43283 -0.281045,-0.62821 -0.252548,-0.40467 -0.211852,-0.90789 l -0.01425,-0.11177 q -0.154515,-0.32105 -0.04326,-0.54493 0.06953,-0.13993 0.195041,-0.25204 l 0.488113,-0.42046 q 0.306809,-0.26628 0.670613,-0.0855 l 0.447759,0.22252 q 0.16791,0.0834 0.252206,0.26491 0.435048,0.73964 0.241033,1.41094 0.633504,1.88513 0.664906,3.29658 l 0.0843,0.18147 q 0.05648,0.23745 0.09889,0.433 0.01408,0.0419 0.02816,0.0838 l 0.333769,-0.67164 q 0.167055,-0.26594 0.33394,-0.60176 0.166885,-0.33582 0.347506,-0.7695 l 0.264233,-0.53172 q 0.250327,-0.50373 0.375662,-0.68571 0.04189,-0.0141 0.0558,-0.0421 l 0.02781,-0.056 q 0.152977,-0.30783 0.416699,-1.04917 0.166543,-0.47558 0.361242,-0.86737 0.319862,-0.64365 0.765912,-1.11991 0.292561,-0.37805 0.403817,-0.60193 l 0.06954,-0.13992 q 0.05512,-0.32157 0.222,-0.65739 0.111256,-0.22388 0.250498,-0.43386 0.292389,-0.44793 0.473523,-0.67198 l 0.02781,-0.056 q 0.06954,-0.13992 0.166714,-0.40569 0.09701,-0.33565 0.236078,-0.6155 0.111256,-0.22388 0.264405,-0.46184 0.139241,-0.20997 0.236761,-0.33599 -8.54e-4,-0.34938 0.110402,-0.57326 0.04172,-0.0839 0.236762,-0.33599 z"
       style="font-size:32px;line-height:1.25;writing-mode:lr-tb;direction:ltr;stroke:none;stroke-opacity:1"
       id="path1076" />
  </g>
  <g
     aria-label=" vologda"
     id="text125"
     style="font-style:normal;font-weight:normal;font-size:32px;line-height:1.25;font-family:sans-serif;letter-spacing:20px;word-spacing:5px;fill:#000000;fill-opacity:1;stroke:none">
    <path
       d="m 195.32424,50.572512 q -0.0862,0.191087 -0.0907,0.235051 -0.0862,0.191087 -0.2316,0.309475 -0.2181,0.177581 -0.50161,0.126338 -0.1364,0.03046 -0.33026,0.18831 -0.53313,0.434088 -0.72249,0.547974 -0.16513,0.09416 -0.35449,0.208041 -0.23783,0.153348 -0.42719,0.267234 -0.1409,0.07442 -0.26206,0.17308 -0.1454,0.118388 -0.41647,0.379396 l -0.0727,0.05919 q -0.14539,0.118388 -0.34548,0.120112 l -0.15613,0.0062 q -0.25756,0.129116 -0.66502,0.420584 l -0.0242,0.01973 q -0.33026,0.188309 -0.45143,0.286966 l -0.0969,0.07893 q -0.0817,0.147122 -0.17863,0.226048 -0.19387,0.15785 -0.47738,0.106607 -1.17842,0.878904 -3.43726,2.113643 -2.04525,1.101122 -3.1115,1.969299 l -0.3635,0.295969 q -0.21809,0.177582 -0.54557,0.121837 -0.0924,0.03496 -0.23333,0.109384 -0.40296,0.247503 -0.63629,0.356888 l -0.63005,0.513013 q -0.16963,0.138119 -0.36973,0.139844 -0.15612,0.0062 -0.31225,0.01245 l -0.66952,0.464547 q -0.0287,0.0637 -0.053,0.08343 -0.053,0.08343 -0.1499,0.162352 -0.16963,0.138119 -0.43341,0.111109 l -0.0727,0.05919 q -0.053,0.08343 -0.12567,0.142621 l -0.19386,0.15785 q -0.31503,0.256507 -0.77718,0.431311 -0.0242,0.01973 -0.0682,0.01523 -0.32126,0.100381 -0.46215,0.174805 l -0.12117,0.09866 q -0.0485,0.03946 -0.10143,0.12289 -0.13467,0.230549 -0.35277,0.408131 -0.1454,0.118387 -0.35449,0.20804 -0.1409,0.07442 -0.34099,0.07615 l -0.14539,0.118388 q -0.12117,0.09866 -0.33026,0.188309 -0.34999,0.164077 -0.65947,-0.06752 -0.16235,-0.1499 -0.28074,-0.295298 -0.37489,-0.460427 -0.39529,-1.128895 0.003,-0.244055 0.15717,-0.450371 0.0485,-0.03946 0.15441,-0.206317 0.053,-0.08343 0.12566,-0.14262 0.1454,-0.118388 0.36972,-0.139844 l 0.58265,-0.917695 q 0.053,-0.08343 0.12567,-0.142621 l 0.82392,-0.670864 q 0.2316,-0.309474 0.8267,-0.914918 0.5951,-0.605444 0.70103,-0.772298 0.18764,-0.313976 0.6723,-0.708602 0.2953,-0.28074 0.34826,-0.364166 0.0287,-0.0637 0.053,-0.08343 0.13017,-0.186585 0.25134,-0.285242 0.14539,-0.118387 0.35449,-0.20804 0.0485,-0.03946 0.11666,-0.05469 0.16341,-0.294245 0.8357,-1.002847 0.62384,-0.669139 0.77374,-0.831491 0.13016,-0.186585 0.27556,-0.304973 0.19387,-0.15785 0.51962,-0.302195 0.1409,-0.07442 0.2136,-0.133617 l 0.0485,-0.03946 q 0.17864,-0.226048 0.53141,-0.634179 0.40573,-0.491557 0.5314,-0.634178 0.0287,-0.0637 0.10143,-0.12289 l 0.41196,-0.335432 q 0.18764,-0.313976 0.49194,-0.682644 0.25134,-0.285242 0.42097,-0.423361 l 0.30602,-0.168578 0.0485,-0.03946 q 0.18764,-0.313977 0.87967,-0.998346 0.5996,-0.649408 0.81147,-0.983115 0.053,-0.08343 0.12566,-0.142621 0.39223,-0.359665 0.9586,-0.901413 0.0772,-0.103158 0.1589,-0.250281 0.13467,-0.230549 0.21637,-0.377671 0.10594,-0.166854 0.2271,-0.265511 0.12117,-0.09866 0.33026,-0.188309 l 0.0242,-0.01973 q 0.0287,-0.0637 0.0377,-0.151625 0.11322,-0.454872 0.27212,-0.705153 0.053,-0.08343 0.12567,-0.14262 l 0.12116,-0.09866 q 0.26656,-0.217044 0.95132,-0.613394 0.21359,-0.133618 0.42891,-0.06714 0.23955,0.04674 0.37767,0.216373 0.53275,0.654291 0.17442,1.550531 -0.26311,0.617225 -0.74154,1.167976 -0.42547,0.467325 -1.0448,1.0925 -0.57086,0.585713 -0.72076,0.748065 -0.15891,0.250281 -0.61311,0.781301 -0.42997,0.511289 -0.65707,0.776799 -0.053,0.08343 -0.12566,0.142621 l -0.81492,0.582935 -1.22171,1.518638 -0.89662,0.730058 -0.87967,0.998345 -0.43619,0.355163 -0.11494,0.254782 q -0.0332,0.10766 -0.13017,0.186585 -0.46943,0.462823 -0.69203,0.684369 -0.0969,0.07892 -0.21359,0.133618 l -0.0924,0.03496 -0.86443,1.066543 -0.63006,0.513013 q 0.13189,0.01351 0.26378,0.02701 l 0.0485,-0.03946 q 0.20737,-0.289743 0.42547,-0.467325 0.16963,-0.138119 0.37872,-0.227772 l 0.0242,-0.01973 q 0.25306,-0.08515 0.69998,-0.328153 0.44693,-0.243001 0.72422,-0.347884 l 0.70275,-0.572207 q 0.12117,-0.09866 0.25756,-0.129116 l 0.45315,-0.08688 q 0.10594,-0.166853 0.25584,-0.329205 l 0.0727,-0.05919 q 0.0969,-0.07893 0.56358,-0.297694 0.28179,-0.148847 0.45143,-0.286966 l 0.43619,-0.355163 q 0.0727,-0.05919 0.16513,-0.09416 0.11666,-0.05469 0.34099,-0.07615 l 0.29079,-0.236775 q 0.1454,-0.118388 0.60755,-0.293192 l 0.50889,-0.414357 q 0.0727,-0.05919 0.16513,-0.09416 0.23333,-0.109384 0.91808,-0.505734 0.75745,-0.455544 1.1469,-0.571155 l 0.0969,-0.07892 q 0.0727,-0.05919 0.1499,-0.162352 0.17863,-0.226048 0.34826,-0.364167 0.0727,-0.05919 0.39846,-0.203539 0.11666,-0.05469 0.96204,-0.501232 1.03024,-0.516463 1.56509,-0.750461 0.30152,-0.124614 0.59126,0.08276 0.0637,0.02873 0.19559,0.04224 0.45938,0.06925 0.67642,0.335813 0.0197,0.02423 0.0609,0.272789 0.0851,0.253058 0.0806,0.297022 z"
       style="font-style:normal;font-variant:normal;font-weight:normal;font-stretch:normal;font-size:32px;font-family:'Cvlt Rvne Demo';-inkscape-font-specification:'Cvlt Rvne Demo'"
       id="path1047" />
    <path
       d="m 207.48364,87.160089 -0.61969,-0.107203 -0.1197,0.03602 q -0.23939,0.07205 -0.47297,-0.05346 -0.0779,-0.04184 -0.16473,-0.113595 -0.0599,0.01801 -0.15862,0.01511 -0.40703,0.05723 -0.69145,-0.02034 -0.10779,-0.03283 -0.2545,-0.08658 l -0.2394,0.07205 q -0.20946,0.06304 -0.43695,0.06624 l -0.0598,0.01801 q -0.30534,-0.03864 -0.77251,-0.289652 -0.26351,-0.116501 -0.34137,-0.158336 -0.0988,-0.0029 -0.26641,-0.01772 -0.2484,0.04213 -0.53573,0.06334 -0.33817,0.06914 -0.43694,0.06624 -0.22749,0.0032 -0.5,-0.143229 l -0.35909,0.108076 q -0.35909,0.108075 -0.6377,-0.167052 -0.0569,-0.08077 -0.23068,-0.224285 -0.20365,-0.134513 -0.36838,-0.248108 -0.0508,0.04794 -0.0808,0.05694 -0.2452,0.269607 -0.42765,0.422423 -0.16153,0.113886 -0.63422,0.386689 -0.39191,0.215861 -0.52352,0.32074 -0.10168,0.09587 -0.29605,0.317544 -0.2452,0.269607 -0.45757,0.43143 -0.21238,0.161822 -0.56246,0.299822 -0.23038,0.101974 -0.40092,0.185936 -0.19146,0.122892 -0.96629,0.584537 -1.56157,0.992143 -2.11792,1.420668 -0.46659,0.401505 -0.95699,0.94072 0.16763,0.01482 0.30534,0.03864 0.6316,0.03835 0.97878,-8.72e-4 0.48779,-0.114176 0.72428,-0.08745 0.27541,0.04765 0.6377,0.167051 0.22457,0.09558 0.32335,0.09849 0.10779,0.03283 0.4939,0.01453 0.48488,-0.0154 0.7603,0.03225 0.21557,0.06566 0.60778,0.176057 0.18564,0.07467 0.29343,0.107494 0.4968,-0.08425 0.6255,-0.09035 0.16763,0.01482 0.49999,0.143228 0.10779,0.03283 0.17664,0.04474 0.1287,-0.0061 0.39511,0.01162 0.15863,-0.01511 0.31435,0.06856 l 0.11679,0.06275 q 0.0599,-0.01801 0.18855,-0.02411 0.42504,0.0026 1.0029,0.187679 0.29343,0.107494 0.43113,0.131317 l 0.53864,-0.162114 q 0.11969,-0.03602 0.21847,-0.03312 0.14062,-0.07496 0.28414,-0.248689 0.42765,-0.422424 1.06477,-0.907891 0.11069,-0.06595 0.20046,-0.09297 l 0.14962,-0.04503 q 0.1136,-0.164727 0.21528,-0.2606 0.17344,-0.182741 0.50261,-0.28181 0.11069,-0.06595 0.27222,-0.179835 0.25421,-0.239683 1.23241,-0.893074 0.92735,-0.605455 1.22049,-0.82422 0.39482,-0.314639 2.22891,-1.160358 0.2513,-0.140905 0.54153,-0.260891 -0.2574,0.0122 -0.47588,0.04532 -0.57465,0.04242 -0.67343,0.03951 l -0.0299,0.009 q -0.20946,0.06304 -0.3771,0.04823 -0.15862,0.01511 -0.46106,-0.122311 l -0.14962,0.04503 q -0.14962,0.04503 -0.28733,0.02121 z m -15.87108,2.133334 0.11359,-0.164728 q 0.1136,-0.164727 0.32307,-0.227771 l 0.29924,-0.09006 q 0.16153,-0.113886 0.44566,-0.362575 0.38582,-0.344563 0.53834,-0.488373 0.21238,-0.161823 0.54154,-0.260892 l 0.0599,-0.01801 q 0.26932,-0.08106 0.69697,-0.50348 0.10168,-0.09587 0.2513,-0.140905 l 0.56856,-0.17112 q 0.17344,-0.18274 0.22429,-0.230677 0.10168,-0.09587 0.2513,-0.140904 l 0.35909,-0.108076 q 0.10168,-0.09587 0.11359,-0.164727 0.1136,-0.164728 0.28414,-0.24869 0.23038,-0.101974 0.33207,-0.197848 0.15543,-0.242588 0.25711,-0.338461 0.13161,-0.10488 0.30215,-0.188842 0.0418,-0.07786 0.0837,-0.155721 0.20918,-0.389303 0.38262,-0.572044 0.15252,-0.14381 0.43375,-0.293721 0.0508,-0.04794 0.0927,-0.125797 0.1165,-0.263506 0.35589,-0.335556 0.0898,-0.02702 0.18855,-0.02411 0.76321,-0.06653 1.31434,0.355021 0.25159,0.185354 0.36838,0.248108 0.0689,0.01191 0.19756,0.0058 0.33527,0.02963 0.75449,0.229805 0.0898,-0.02702 0.15863,-0.01511 0.40703,-0.05723 0.62259,0.0084 0.16764,0.01482 0.35328,0.08948 0.13771,0.02382 0.58076,0.08629 0.51191,0.07437 1.85007,0.291686 1.21817,-0.07292 1.74808,0.0613 0.36229,0.119405 0.52992,0.134222 0.16763,0.01482 0.63451,-0.06043 0.65542,-0.09936 1.07755,0.002 0.0689,0.01191 0.14672,0.05375 l 0.17954,-0.05404 q 0.1197,-0.03603 0.21848,-0.03312 1.54762,0.154267 3.23877,0.134801 0.48489,-0.0154 0.61998,0.433463 l 0.009,0.02992 q 0.027,0.08977 0.0241,0.188551 0.018,0.05985 0.0151,0.158626 0.0811,0.269317 0.0662,0.43695 -0.009,0.296335 -0.24201,0.497088 -0.21237,0.161822 -0.75101,0.323936 -0.17053,0.08396 -0.29023,0.119987 -0.0209,0.03893 -0.0328,0.107784 -0.0956,0.224576 -0.31696,0.356475 -0.17054,0.08396 -0.25131,0.140904 -0.18535,0.251595 -0.30795,0.386399 -0.10169,0.09587 -0.25131,0.140904 l -0.0898,0.02702 q -0.17954,0.05404 -0.3771,0.04823 l -0.0299,0.009 q -1.38203,0.938106 -2.27975,1.208294 l -0.0598,0.01801 q -0.1226,0.134803 -0.26322,0.209759 -0.64031,0.257986 -1.33118,0.890169 -0.80156,0.698132 -1.37302,0.96803 -0.35008,0.137999 -0.45177,0.233873 -0.0808,0.05694 -0.29604,0.317543 -0.57117,0.596158 -1.1008,0.788195 -0.17635,0.281519 -0.45438,0.658911 -0.0927,0.125797 -0.20627,0.290525 -0.1136,0.164727 -0.18536,0.251594 -0.0418,0.07786 -0.18245,0.152817 -0.1316,0.104879 -0.31115,0.158917 l -0.0299,0.009 q -0.20947,0.06304 -0.39512,-0.01162 -0.0688,-0.01191 -0.16763,-0.01482 -0.0299,0.009 -0.0688,-0.01191 l -0.19756,-0.0058 q -0.19756,-0.0058 -0.35328,-0.08948 -0.18564,-0.07466 -0.34747,-0.287039 -0.10778,-0.03283 -0.26641,-0.01772 -0.41603,0.02731 -0.69145,-0.02034 -0.20656,-0.03573 -0.35037,-0.18826 -0.0479,-0.05084 -0.1258,-0.09268 -0.0779,-0.04184 -0.16473,-0.113595 -0.19755,-0.0058 -0.46396,-0.02353 -0.54474,0.03341 -0.81115,0.01569 -0.27542,-0.04765 -0.67663,-0.187969 -0.2545,-0.08658 -0.43114,-0.131317 -0.20656,-0.03573 -0.83816,-0.07408 -0.76031,-0.03225 -1.0058,-0.0889 -0.21557,-0.06566 -0.56885,-0.15514 -0.14672,-0.05375 -0.28442,-0.07757 l -0.2394,0.07205 q -0.23939,0.07205 -0.47297,-0.05346 l -0.0779,-0.04184 q -0.0299,0.009 -0.0988,-0.0029 -0.17664,-0.04474 -0.69145,-0.02034 -0.67344,0.03951 -0.96977,0.0308 -0.0988,-0.0029 -0.4968,0.08425 -0.68825,0.207145 -1.02962,0.04881 -0.26351,-0.1165 -0.45235,-0.418646 -0.29343,-0.107494 -0.38349,-0.406735 l -0.027,-0.08977 q -0.063,-0.209468 0.0325,-0.434044 l -0.018,-0.05985 q -0.10808,-0.359089 0.16705,-0.637702 0.15252,-0.14381 1.26814,-1.099638 l 0.0209,-0.03893 q 0.0508,-0.04794 0.0837,-0.155721 0.21818,-0.35938 0.39163,-0.54212 0.10168,-0.09587 0.2513,-0.140905 z"
       style="font-style:normal;font-variant:normal;font-weight:normal;font-stretch:normal;font-size:32px;font-family:'Cvlt Rvne Demo';-inkscape-font-specification:'Cvlt Rvne Demo'"
       id="path1049" />
    <path
       d="m 201.05247,123.5297 q 0.27307,0.15195 0.30826,0.17868 0.14076,0.10694 0.23788,0.12521 0.0704,0.0535 0.2998,0.11676 0.26462,0.09 0.52501,0.14908 0.004,0.031 0.0971,0.0183 0.12808,0.014 0.19423,0.0366 0.0662,0.0225 0.17596,0.13367 0.1098,0.11116 0.16191,0.26175 0.0394,0.0577 0.0873,0.17732 0.74038,0.34045 1.19936,1.16089 0.0436,0.0887 0.0606,0.21251 0.0296,0.21673 -0.10543,0.61366 -0.0942,0.23365 -0.32927,0.36036 -0.0577,0.0394 -0.29271,0.16614 -0.0267,0.0352 -0.0887,0.0436 -0.20828,0.0915 -0.36309,0.11266 -0.40252,0.055 -0.78116,-0.17718 -0.76152,-0.49526 -1.0009,-1.09337 -0.1675,-0.0717 -0.43212,-0.16177 l -0.0352,-0.0267 q -0.26461,-0.09 -0.43634,-0.19274 -0.1675,-0.0717 -0.32095,-0.27157 -0.031,0.004 -0.0971,-0.0183 -0.32231,-0.0506 -0.525,-0.14909 -0.19846,-0.0675 -0.41807,-0.28984 -0.0352,-0.0267 -0.0704,-0.0535 -0.0352,-0.0267 -0.0662,-0.0225 -0.26039,-0.0591 -0.40115,-0.16599 -0.10558,-0.0802 -0.28999,-0.2758 -0.0704,-0.0535 -0.14499,-0.1379 -0.22097,-0.001 -0.35327,-0.0464 -0.13231,-0.045 -0.20692,-0.12944 -0.17596,-0.13367 -0.32941,-0.33349 -0.34904,-0.0154 -0.56019,-0.17582 -0.10557,-0.0802 -0.18864,-0.22656 -0.25766,-0.50099 -0.42802,-0.82467 -0.0436,-0.0887 -0.0606,-0.21251 l -0.004,-0.031 q -0.0465,-0.34059 0.20678,-0.56442 0.45312,-0.37728 1.0414,-0.45762 0.27867,-0.0381 0.57002,0.0168 0.22519,0.0323 0.68827,0.18987 0.26038,0.0591 0.39269,0.10407 l 1.82679,-0.24948 q 0.38424,0.0421 1.15831,-0.0636 l 0.36309,-0.11267 0.18578,-0.0254 q 0.6629,0.004 0.91483,0.001 0.50522,-0.2267 1.34121,-0.34087 0.34059,-0.0465 0.74733,-0.0705 0.62348,-0.0536 1.08792,-0.11703 0.4954,-0.0677 0.70368,-0.15918 l 0.15481,-0.0211 q 0.46867,-0.0325 1.08792,-0.11704 0.17732,-0.0873 0.33214,-0.10843 l 0.22096,0.001 0.95984,-0.13108 q 0.95139,-0.19301 1.47775,-0.26489 l 0.86695,-0.1184 q 0.23925,-0.0957 0.51791,-0.13381 0.18578,-0.0254 0.49963,-0.0367 0.71637,-0.0663 0.77829,-0.0748 0.12385,-0.0169 0.18155,-0.0563 0.18155,-0.0563 0.33636,-0.0775 0.2477,-0.0338 0.65867,-0.0269 0.32791,-0.1394 0.82331,-0.20706 0.12385,-0.0169 0.28289,-0.007 l 0.12385,-0.0169 q 0.46444,-0.0634 0.64176,-0.15072 0.11962,-0.0479 0.24347,-0.0648 l 0.50386,-0.006 0.26175,-0.1619 q 0.11962,-0.0479 0.21251,-0.0606 l 0.58829,-0.0803 0.19559,-0.18442 q 0.0844,-0.0746 0.20406,-0.12248 0.21251,-0.0606 0.49117,-0.0986 0.15481,-0.0211 0.24347,-0.0648 0.0887,-0.0436 0.18155,-0.0563 0.55733,-0.0761 0.64612,0.5741 l 0.0212,0.15481 q 0.0423,0.30963 -0.18005,0.52923 l 0.0127,0.0929 q 0.0423,0.30963 -0.18005,0.52923 -0.25329,0.22383 -0.56005,0.51804 -0.14213,0.11403 -0.32791,0.1394 l -0.18577,0.0254 q -0.15482,0.0211 -0.28712,-0.0239 -0.0929,0.0127 -0.15904,-0.01 -0.0887,0.0436 -0.23925,0.0957 l -0.0929,0.0127 q -0.46021,0.0944 -0.70791,0.12822 l -0.83599,0.11417 q -0.18155,0.0563 -0.36732,0.0817 -0.2477,0.0338 -0.65444,0.0578 l -0.031,0.004 q -0.34904,-0.0154 -0.50385,0.006 l -0.12386,0.0169 q -0.0577,0.0394 -0.11539,0.0788 -0.21251,0.0606 -0.52213,0.10284 -0.27867,0.0381 -0.68541,0.0621 l -0.031,0.004 q -0.34905,-0.0154 -0.50386,0.006 l -0.15481,0.0211 q -0.31945,0.20132 -0.62908,0.24361 -0.18577,0.0254 -1.83525,0.18755 l -0.55732,0.0761 q -0.61926,0.0846 -0.88946,0.18455 -0.16464,0.18019 -0.35041,0.20556 -0.0929,0.0127 -0.19001,-0.006 -0.79943,-0.0801 -1.94505,0.0764 -0.43347,0.0592 -0.98657,0.16628 -0.61503,0.11553 -1.74796,0.36487 -1.09774,0.27607 -1.52276,0.3972 l -0.34059,0.0465 q -0.40251,0.055 -0.88386,-0.005 -0.18155,0.0563 -0.45176,0.15632 z"
       style="font-style:normal;font-variant:normal;font-weight:normal;font-stretch:normal;font-size:32px;font-family:'Cvlt Rvne Demo';-inkscape-font-specification:'Cvlt Rvne Demo'"
       id="path1051" />
    <path
       d="m 217.17892,157.5942 -0.55721,-0.29159 -0.12498,-0.002 q -0.24996,-0.005 -0.43396,-0.19555 -0.0613,-0.0636 -0.12209,-0.15853 -0.0625,-0.001 -0.15565,-0.0341 -0.40503,-0.07 -0.6521,-0.23084 -0.0926,-0.0642 -0.21582,-0.16026 l -0.24996,-0.005 q -0.21871,-0.004 -0.43627,-0.0706 l -0.0625,-0.001 q -0.27889,-0.13018 -0.6469,-0.51204 -0.21525,-0.19151 -0.27659,-0.25515 -0.0932,-0.033 -0.24822,-0.0984 -0.24938,-0.0359 -0.52943,-0.10355 -0.34312,-0.0376 -0.43627,-0.0706 -0.21756,-0.0665 -0.43223,-0.28928 l -0.37494,-0.007 q -0.37493,-0.007 -0.55605,-0.35408 -0.0295,-0.0943 -0.15103,-0.28409 -0.15276,-0.19035 -0.27485,-0.34889 -0.0631,0.0301 -0.0943,0.0295 -0.31591,0.18169 -0.53635,0.27139 -0.18862,0.059 -0.72209,0.17419 -0.43916,0.0856 -0.59654,0.14525 -0.12613,0.0602 -0.37897,0.21179 -0.31591,0.1817 -0.5676,0.27081 -0.25169,0.0891 -0.6272,0.11344 -0.25054,0.0266 -0.43858,0.0544 -0.21987,0.0585 -1.09876,0.261 -1.79018,0.46702 -2.45094,0.70485 -0.56702,0.23957 -1.19884,0.60296 0.15507,0.0654 0.27889,0.13018 0.58961,0.22968 0.93215,0.29852 0.49934,0.0405 0.71632,0.13825 0.24765,0.1296 0.55605,0.35408 0.18458,0.15969 0.27774,0.19266 0.0926,0.0642 0.46578,0.16489 0.46637,0.13363 0.71401,0.26323 0.18516,0.12844 0.52481,0.3535 0.15392,0.12787 0.2465,0.19209 0.49876,0.0717 0.62316,0.10528 0.15507,0.0654 0.43223,0.28928 0.0926,0.0642 0.15449,0.0966 0.1244,0.0336 0.37263,0.1319 0.15565,0.0341 0.27832,0.16142 l 0.092,0.0955 q 0.0625,0.001 0.18689,0.0347 0.40387,0.13248 0.89744,0.48541 0.24649,0.19208 0.37031,0.25688 l 0.56241,0.0104 q 0.12498,0.002 0.21813,0.0353 0.1568,-0.0284 0.34658,-0.14987 0.53635,-0.27139 1.29142,-0.53874 0.12556,-0.0289 0.21929,-0.0272 l 0.15623,0.003 q 0.15853,-0.12209 0.28466,-0.18227 0.22102,-0.12094 0.56471,-0.11459 0.12556,-0.0289 0.31418,-0.088 0.31533,-0.15045 1.44649,-0.47336 1.06809,-0.29282 1.41409,-0.41145 0.47214,-0.17881 2.47699,-0.42307 0.28236,-0.0573 0.59538,-0.0828 -0.2488,-0.0671 -0.46694,-0.10239 -0.56009,-0.13537 -0.65325,-0.16835 l -0.0312,-5.7e-4 q -0.21872,-0.004 -0.37379,-0.0694 -0.15564,-0.0341 -0.40156,-0.25746 l -0.15622,-0.003 q -0.15623,-0.003 -0.28005,-0.0677 z m -15.76305,-2.82289 0.15853,-0.12209 q 0.15854,-0.1221 0.37725,-0.11805 l 0.31245,0.006 q 0.18862,-0.059 0.5352,-0.2089 0.47271,-0.21006 0.66191,-0.30033 0.25168,-0.0891 0.59538,-0.0828 l 0.0625,0.001 q 0.2812,0.005 0.81755,-0.26619 0.12613,-0.0602 0.28236,-0.0573 l 0.59365,0.011 q 0.22102,-0.12094 0.28408,-0.15103 0.12614,-0.0602 0.28236,-0.0573 l 0.37494,0.007 q 0.12613,-0.0602 0.15853,-0.12209 0.15853,-0.12209 0.34658,-0.14987 0.25053,-0.0266 0.37666,-0.0868 0.22218,-0.18343 0.34831,-0.24361 0.15738,-0.0596 0.34543,-0.0874 0.0636,-0.0613 0.12728,-0.12266 0.31822,-0.30668 0.53924,-0.42762 0.1892,-0.0903 0.50281,-0.14699 0.0631,-0.0301 0.12671,-0.0914 0.1915,-0.21525 0.44146,-0.21063 0.0937,0.002 0.18689,0.0347 0.74699,0.17007 1.14278,0.73998 0.18285,0.25342 0.27485,0.34889 0.0619,0.0324 0.18632,0.0659 0.31013,0.13075 0.64805,0.44955 0.0937,0.002 0.15565,0.0341 0.40502,0.07 0.59018,0.19843 0.15507,0.0654 0.30899,0.19324 0.12382,0.0648 0.52654,0.25977 0.46463,0.22737 1.6722,0.84353 1.18211,0.30314 1.64558,0.593 0.30841,0.22448 0.46348,0.28986 0.15507,0.0654 0.62258,0.13652 0.65441,0.10586 1.0253,0.3315 0.0619,0.0324 0.12325,0.096 l 0.18747,0.003 q 0.12498,0.002 0.21813,0.0353 1.42629,0.6202 3.04236,1.11888 0.46636,0.13364 0.4577,0.60231 l -5.8e-4,0.0312 q -0.002,0.0937 -0.0347,0.18689 -0.001,0.0625 -0.0341,0.15564 -0.005,0.2812 -0.0706,0.43627 -0.0989,0.27947 -0.38244,0.39926 -0.25169,0.0891 -0.81409,0.0787 -0.18805,0.0278 -0.31302,0.0255 -0.0318,0.0307 -0.0642,0.0926 -0.15968,0.18458 -0.41079,0.24245 -0.18805,0.0278 -0.28236,0.0573 -0.25342,0.18285 -0.41138,0.2737 -0.12613,0.0602 -0.28235,0.0573 l -0.0937,-0.002 q -0.18746,-0.003 -0.37378,-0.0694 l -0.0312,-5.8e-4 q -1.60272,0.47048 -2.54006,0.45316 l -0.0625,-0.001 q -0.15795,0.0909 -0.31475,0.1192 -0.68854,0.0498 -1.53965,0.44039 -0.97666,0.41953 -1.60329,0.50172 -0.37551,0.0243 -0.50165,0.0845 -0.0943,0.0295 -0.37897,0.21179 -0.72613,0.3929 -1.28911,0.41376 -0.254,0.21409 -0.63413,0.48837 -0.12671,0.0914 -0.28525,0.21351 -0.15853,0.1221 -0.25342,0.18286 -0.0636,0.0613 -0.22044,0.0897 -0.15738,0.0596 -0.34485,0.0561 l -0.0312,-5.8e-4 q -0.21871,-0.004 -0.37263,-0.1319 -0.0619,-0.0324 -0.15507,-0.0654 -0.0312,-5.8e-4 -0.0619,-0.0324 l -0.18631,-0.0659 q -0.18632,-0.066 -0.30899,-0.19324 -0.15391,-0.12787 -0.24303,-0.37955 -0.0926,-0.0642 -0.24822,-0.0984 -0.40445,-0.10123 -0.6521,-0.23083 -0.18574,-0.0972 -0.27601,-0.2864 -0.0301,-0.0631 -0.0914,-0.12671 -0.0613,-0.0636 -0.12209,-0.15853 -0.18632,-0.066 -0.43454,-0.1643 -0.52885,-0.1348 -0.77708,-0.23315 -0.24765,-0.12959 -0.58672,-0.3859 -0.21583,-0.16026 -0.37032,-0.25688 -0.18574,-0.0972 -0.77535,-0.32688 -0.71401,-0.26323 -0.93041,-0.39225 -0.18516,-0.12845 -0.49414,-0.32169 -0.12325,-0.096 -0.24707,-0.16084 l -0.24996,-0.005 q -0.24996,-0.005 -0.43396,-0.19555 l -0.0613,-0.0636 q -0.0312,-5.7e-4 -0.0932,-0.033 -0.1545,-0.0966 -0.6521,-0.23084 -0.65325,-0.16834 -0.93272,-0.26727 -0.0932,-0.033 -0.49876,-0.0717 -0.71863,-0.0133 -0.99522,-0.26842 -0.21525,-0.19151 -0.30263,-0.53694 -0.24649,-0.19208 -0.24072,-0.50453 l 0.002,-0.0937 q 0.004,-0.21872 0.16373,-0.4033 l 0.001,-0.0625 q 0.007,-0.37493 0.35408,-0.55605 0.1892,-0.0903 1.54369,-0.6591 l 0.0318,-0.0307 q 0.0631,-0.0301 0.12729,-0.12267 0.31764,-0.27543 0.53866,-0.39637 0.12614,-0.0602 0.28236,-0.0573 z"
       style="font-style:normal;font-variant:normal;font-weight:normal;font-stretch:normal;font-size:32px;font-family:'Cvlt Rvne Demo';-inkscape-font-specification:'Cvlt Rvne Demo'"
       id="path1053" />
    <path
       d="m 202.25445,191.72897 q 0.0191,-0.0918 0.10566,-0.20147 -0.15065,-0.35045 -0.18929,-0.93297 -0.0306,-0.006 -0.0675,0.0179 l -0.0612,-0.0127 q -0.71645,-0.0849 -0.96123,-0.13574 -0.15299,-0.0318 -0.48321,-0.13224 0.96927,0.7119 1.65681,1.39723 z m -1.95916,-3.63033 0.33541,0.22922 q 0.22572,0.14262 0.39025,0.27253 0.0918,0.0191 0.28808,-0.004 0.46648,-0.0947 0.92544,6.4e-4 0.15299,0.0318 0.33022,0.10048 0.17723,0.0687 0.26903,0.0878 0.13509,-0.0358 0.36198,-0.0525 0.0981,-0.0115 0.22053,0.0139 0.21419,0.0445 0.58019,0.28004 l 0.12239,0.0254 q 0.0612,0.0127 0.18994,0.008 0.46013,-0.064 0.58252,-0.0386 0.0918,0.0191 0.14663,0.0624 l 0.20148,0.10567 q 0.15934,0.001 0.41047,0.0214 0.18994,0.008 0.34292,0.0393 0.27538,0.0572 0.5317,0.20614 l 0.12239,0.0254 q 0.26384,-0.041 0.50862,0.01 0.21418,0.0445 0.42201,0.11953 0.32387,0.13108 1.42537,0.35978 1.16271,0.2414 1.63956,0.40424 l 0.30598,0.0635 q 0.15298,0.0318 0.25113,0.0202 0.28808,-0.004 0.56346,0.0531 0.39777,0.0826 0.79437,0.32451 0.14663,0.0624 0.17723,0.0687 l 1.97729,0.31478 0.0612,0.0127 q 0.12239,0.0254 0.20783,0.0751 0.14028,0.093 0.50745,0.1692 l 0.55076,0.11435 q 0.37352,0.0456 0.67949,0.10916 0.52016,0.108 0.87462,0.24542 l 0.0242,0.037 q 0.37871,0.17438 1.38842,0.38402 0.48956,0.10165 0.51031,0.61662 l 5.2e-4,0.7661 -0.0191,0.0918 q -0.0445,0.21419 -0.20498,0.37236 l -0.2344,0.20666 q -0.19746,0.18242 -0.50979,0.14949 -0.46531,-0.0647 -0.55827,0.0756 -0.0127,0.0612 -0.0497,0.0854 -0.17321,0.21937 -0.38856,0.33424 -0.10449,0.0421 -0.73148,0.29495 -0.44859,0.1622 -0.73149,0.29496 l -0.17321,0.21937 q -0.13626,0.19512 -0.3389,0.2488 -0.1351,0.0358 -0.35564,0.0219 l -0.31466,0.28575 q -0.0306,-0.006 -0.0675,0.0179 -0.26501,0.20031 -0.73149,0.29496 -0.23324,0.0473 -0.33774,0.0895 -0.0739,0.0485 -0.15415,0.12758 -0.45728,0.51147 -1.05133,0.45196 l -0.0612,-0.0127 q -0.24478,-0.0508 -0.39025,-0.27252 -0.2182,-0.33255 -0.30882,-0.51095 -0.0242,-0.0369 -0.0179,-0.0675 -0.12641,-0.31349 -0.0565,-0.65006 0.0889,-0.42837 0.4775,-0.76261 0.19746,-0.18242 0.47919,-0.15584 0.15299,0.0318 0.25749,-0.0104 0.27135,-0.23091 0.5479,-0.33307 0.14145,-0.0664 0.32503,-0.0283 l 0.15299,0.0318 q 0.0612,0.0127 0.1784,-0.0906 0.43821,-0.41968 0.54906,-0.49241 0.2217,-0.14547 0.60793,-0.16103 0.16569,-0.0294 0.26384,-0.041 0.1045,-0.0421 0.54155,-0.30248 l -0.33657,-0.0699 q -0.30598,-0.0635 -0.46532,-0.0647 l -0.0918,-0.0191 q -0.12239,-0.0254 -0.20783,-0.0751 -0.22572,-0.14261 -0.37871,-0.17438 l -0.12239,-0.0254 -0.46013,0.0641 q -0.0981,0.0115 -0.18994,-0.008 l -0.0918,-0.0191 -0.4705,-0.19343 q -0.0981,0.0115 -0.25748,0.0104 -0.12875,0.005 -0.28173,-0.0266 -0.73318,-0.3118 -1.28393,-0.42615 -0.30598,-0.0635 -0.53286,-0.0468 l -0.0306,-0.006 q -0.50227,-0.0404 -0.83884,-0.11033 -0.33657,-0.0699 -0.59289,-0.21885 -0.14663,-0.0624 -0.29962,-0.0941 l -0.0918,-0.0191 q -0.0369,0.0242 -0.0982,0.0115 -0.31233,-0.0329 -0.46531,-0.0647 l -0.0612,-0.0127 q -0.12239,-0.0254 -0.20783,-0.0751 -0.366,-0.23557 -0.64138,-0.29275 -0.21418,-0.0445 -0.37987,-0.015 -0.1351,0.0358 -0.25749,0.0104 -0.0918,-0.0191 -0.17723,-0.0687 -0.0548,-0.0433 -0.17723,-0.0687 l -0.11604,-0.056 -0.0612,-0.0127 q -0.74588,-0.25061 -1.29664,-0.36496 -0.36717,-0.0762 -0.6489,-0.10282 -0.056,0.11604 -0.0751,0.20783 0.0843,0.209 0.0398,0.42318 l -0.0762,0.36717 q 0.0421,0.1045 0.0843,0.209 0.06,0.17204 0.0219,0.35563 -0.0191,0.0918 -0.0814,0.23843 0.06,0.17204 0.0283,0.32503 -0.0254,0.12239 -0.0139,0.22053 0.1443,0.38104 0.0998,0.59523 l -0.0191,0.0918 -0.0687,0.17723 0.0485,0.0739 q 0.12122,0.18475 0.0704,0.42953 -0.0445,0.21418 -0.14378,0.38506 -0.24193,0.3966 -0.6703,0.30767 -0.0918,-0.0191 -0.34927,-0.009 -0.35563,0.0219 -0.60041,-0.0289 l -0.12239,-0.0254 q -0.30598,-0.0635 -0.43239,-0.37702 -0.21301,-0.20381 -0.19279,-0.45494 0.0393,-0.34293 -0.72332,-0.82043 -0.49993,-0.35913 -0.6887,-0.52599 -0.12758,-0.15415 -0.43122,-0.53636 -0.097,-0.1478 -0.17607,-0.22805 l -0.21418,-0.0445 q -0.0918,-0.0191 -0.17723,-0.0687 -0.22572,-0.14261 -0.44392,-0.47516 l -0.0485,-0.0739 q -0.20783,-0.0751 -0.32387,-0.13108 -0.19512,-0.13626 -0.35213,-0.45611 l -0.21418,-0.0445 q -0.33658,-0.0699 -0.46299,-0.38337 l -0.0179,-0.0676 q -0.16452,-0.12991 -0.27421,-0.21651 l -0.21418,-0.0445 q -0.15299,-0.0318 -0.26267,-0.11837 -0.10969,-0.0866 -0.23091,-0.27136 -0.0854,-0.0497 -0.14663,-0.0624 -0.17088,-0.0993 -0.26786,-0.24711 -0.0485,-0.0739 -0.14547,-0.22171 l -0.15299,-0.0318 q -0.0918,-0.0191 -0.17723,-0.0687 -0.22572,-0.14262 -0.37119,-0.36432 -0.097,-0.1478 -0.13912,-0.2523 -0.0727,-0.11085 -0.13276,-0.28289 l -0.0421,-0.1045 q -0.11488,-0.21535 -0.0704,-0.42953 l 0.0127,-0.0612 q 0.0699,-0.33657 0.41397,-0.45663 0.68818,-0.24011 1.35614,-0.22909 l 0.0612,0.0127 q 0.24478,0.0508 0.42084,0.27888 0.18994,0.008 0.31233,0.0329 l 0.0918,0.0191 q 0.0918,0.0191 0.17723,0.0687 0.0854,0.0497 0.3966,0.24193 0.0306,0.006 0.0854,0.0496 0.209,-0.0843 0.39258,-0.0461 l 0.0918,0.019 q 0.12239,0.0254 0.33022,0.10048 0.17723,0.0687 0.26902,0.0878 0.209,-0.0843 0.42318,-0.0398 z"
       style="font-style:normal;font-variant:normal;font-weight:normal;font-stretch:normal;font-size:32px;font-family:'Cvlt Rvne Demo';-inkscape-font-specification:'Cvlt Rvne Demo'"
       id="path1055" />
    <path
       d="m 201.66755,227.43613 q -0.18978,-0.17432 -0.43688,-0.30866 -0.21964,-0.11941 -0.46913,-0.18391 -0.33185,-0.10928 -0.6064,-0.25854 -0.19219,-0.10449 -0.3969,-0.25135 -0.27215,-0.2191 -0.5467,-0.36836 l -1.55239,-0.80842 -0.63146,-0.34331 q -0.0824,-0.0448 -0.14981,-0.11701 l -0.13727,-0.0746 q -0.19219,-0.10449 -0.50911,-0.24122 -0.38677,-0.13913 -0.60641,-0.25854 -0.302,-0.16419 -0.43448,-0.3785 l -0.71383,-0.38808 q -0.302,-0.16419 -0.47926,-0.29613 -0.12234,-0.10208 -0.58908,-0.35583 l -0.54909,-0.29853 q -0.92094,-0.46511 -1.28025,-0.58932 -0.0698,-0.002 -0.12475,-0.0322 l -1.20801,-0.65676 q -0.52164,-0.2836 -0.97584,-0.49496 l 0.0101,0.11221 q 0.0674,0.0722 0.18978,0.17432 0.33959,0.29134 0.4846,0.54802 0.0776,0.18445 0.22018,0.51097 0.0776,0.18445 0.13008,0.28414 0.28708,0.19165 0.60694,0.65011 0.22498,0.3713 0.31987,0.45846 0.04,0.0573 0.12235,0.10208 0.24709,0.13434 0.40942,0.29373 0.17726,0.13194 0.19752,0.35638 0.0101,0.11221 0.0602,0.28174 0.11995,0.17192 0.34972,0.40355 0.43449,0.37849 0.55444,0.55041 0.11995,0.17193 0.2375,0.41369 0.0251,0.0848 0.0925,0.15699 0.0674,0.0722 0.21724,0.18925 0.21725,0.18924 0.34972,0.40355 0.18206,-0.008 0.34679,0.0818 l 0.10981,0.0597 q 0.22444,-0.0203 0.41662,0.0842 l 0.21964,0.11941 q 0.59574,-0.24523 1.53639,0.0528 l 0.42915,0.12661 q 0.0424,-0.0125 0.12714,-0.0376 0.32652,-0.14261 0.53603,-0.13541 0.13967,0.005 0.27695,0.0794 l 0.0549,0.0299 q 0.23936,-0.0477 0.43154,0.0568 l 0.35691,0.19404 q 0.18206,-0.008 0.44887,-0.0405 0.51871,-0.0381 0.78312,-0.001 0.23697,0.0221 0.82071,0.12607 0.37424,0.0968 0.63866,0.13379 0.11461,-0.08 0.22683,-0.0901 z m -5.43396,-5.05289 q 0.16473,0.0896 0.81591,0.26574 l 0.13728,0.0746 q 0.19218,0.10449 0.35212,0.33372 l 0.0549,0.0298 q 0.3044,0.0944 0.46913,0.18391 0.16472,0.0896 0.33958,0.29133 0.0824,0.0448 0.17966,0.0621 0.40169,0.11167 1.43245,0.63649 l 0.24709,0.13434 q 0.60401,0.32838 0.97105,0.63464 0.18205,-0.008 0.34678,0.0818 0.0549,0.0299 0.12235,0.10209 l 0.13727,0.0746 q 0.13728,0.0746 0.34439,0.15166 0.23456,0.092 0.39929,0.18151 0.32946,0.17912 0.53177,0.39582 0.13488,0.14447 0.69651,0.48538 l 0.79619,0.43286 q 0.0824,0.0448 0.33185,0.10928 l 0.19219,0.10448 q 0.42195,0.33611 0.77886,0.53016 0.38437,0.20897 0.7037,0.27586 0.0973,0.0173 0.20711,0.077 0.21964,0.11941 0.27988,0.40116 l 0.0978,0.40888 q 0.0626,0.21191 -0.0568,0.43154 l -0.0298,0.0549 q -0.10209,0.12235 -0.20657,0.31454 -0.11701,0.1498 -0.26388,0.35451 -0.11701,0.1498 -0.32892,0.21245 -0.33905,0.10022 -0.72341,-0.10874 l -0.16473,-0.0896 -0.23936,0.0477 q -0.25429,0.0752 -0.47393,-0.0442 l -0.302,-0.16419 q -0.52884,-0.0741 -1.35194,-0.13032 -0.99023,-0.076 -1.36687,-0.10287 -0.0274,-0.0149 -0.0973,-0.0173 -0.58135,-0.17379 -0.83084,-0.23829 l -0.12714,0.0376 q -0.18445,0.0776 -0.36411,0.0155 -0.24949,-0.0645 -0.34678,-0.0818 -0.0424,0.0125 -0.11222,0.0101 -0.25428,0.0752 -0.46379,0.068 -0.22444,0.0203 -0.55629,-0.089 -0.1522,-0.0472 -0.3044,-0.0943 -0.12475,-0.0323 -0.7682,-0.0264 -0.6709,-0.009 -0.95025,-0.0186 -0.13967,-0.005 -0.27694,-0.0794 l -0.19219,-0.10448 q -0.23696,-0.0221 -0.61599,0.0208 -0.36411,0.0155 -0.616,0.0208 -0.3737,0.29481 -0.87987,0.37531 -0.22444,0.0203 -0.35158,0.0579 -0.28414,0.13008 -0.55869,-0.0192 l -0.0549,-0.0298 q -0.61413,-0.4406 -1.05689,-1.39271 -0.3252,-0.71034 -0.46008,-0.85481 -0.15993,-0.22923 -1.10167,-1.31034 -0.93933,-1.15095 -1.20669,-1.50972 -0.18739,-0.24415 -0.28228,-0.33131 -0.302,-0.16419 -0.43448,-0.3785 -0.08,-0.11461 -0.2375,-0.41368 -0.0251,-0.0848 -0.0651,-0.14207 l -0.10981,-0.0597 q -0.21964,-0.11941 -0.30974,-0.34624 -0.10023,-0.33905 -0.1802,-0.45367 -0.04,-0.0573 -0.0674,-0.0722 -0.22977,-0.23163 -0.35266,-0.72528 -0.0824,-0.0448 -0.12235,-0.10208 -0.24469,-0.20418 -0.33719,-0.36117 -0.10742,-0.12954 -0.19752,-0.35638 -0.025,-0.0848 -0.065,-0.14207 -0.0824,-0.0448 -0.25962,-0.17671 -0.3969,-0.25135 -0.51445,-0.49311 -0.10742,-0.12954 -0.18499,-0.31399 -0.25722,-0.24656 -0.21778,-0.58081 -0.0901,-0.22683 -0.11036,-0.45127 -0.0203,-0.22443 0.0693,-0.38916 l 0.0298,-0.0549 q 0.24895,-0.32706 0.83216,-0.61468 0.27161,-0.17246 0.57361,-0.008 l 0.0549,0.0299 q 0.5467,0.36837 0.98598,0.60719 0.38437,0.20897 0.66131,0.28839 0.51151,0.17139 0.73115,0.2908 0.21964,0.11941 0.37957,0.34864 l 0.0275,0.0149 q 0.16473,0.0896 0.49658,0.19884 0.42915,0.1266 0.84097,0.3505 0.21964,0.11941 0.45181,0.2812 0.23216,0.16179 0.36944,0.23642 l 0.10982,0.0597 q 0.87562,0.15592 1.72672,0.61863 0.604,0.32838 1.2432,0.85374 l 0.22203,0.0496 0.19219,0.10449 q 0.68157,0.51283 0.88628,0.65969 z"
       style="font-style:normal;font-variant:normal;font-weight:normal;font-stretch:normal;font-size:32px;font-family:'Cvlt Rvne Demo';-inkscape-font-specification:'Cvlt Rvne Demo'"
       id="path1057" />
    <path
       d="m 179.39651,262.65457 -0.004,0.48812 q -0.006,0.28804 -0.22402,0.46626 l -0.0967,0.0792 q -0.233,0.11007 -0.35388,0.20908 -0.2901,0.23762 -0.65298,0.0905 -0.12756,-0.0571 -0.25511,-0.11419 -0.13194,-0.0131 -0.23532,-0.09 -0.18696,-0.12963 -0.36518,-0.3472 -0.15841,-0.19341 -0.37186,-0.50331 -0.42252,-0.66379 -0.87797,-1.21983 -0.65346,-0.79778 -1.33316,-1.33171 l -0.45544,-0.55603 -1.13515,-1.08996 -0.53465,-0.65273 q -0.80726,-0.59102 -1.30231,-1.1954 -0.15842,-0.19341 -0.31246,-0.43079 -0.22887,-0.37806 -0.4863,-0.69234 -0.43564,-0.53185 -0.79414,-0.72295 -0.29472,-0.16254 -0.59175,-0.52517 -0.13861,-0.16923 -0.22219,-0.22196 -0.0836,-0.0527 -0.16279,-0.14942 l -0.57425,-0.70109 q -0.17385,-0.26155 -0.29266,-0.4066 l -0.0396,-0.0484 q -0.0198,-0.0242 -0.0638,-0.0285 -0.0396,-0.0484 -0.10339,-0.0769 -0.32326,-0.0988 -0.48168,-0.29217 -0.099,-0.12088 -0.2443,-0.44622 l -0.17822,-0.21757 q -0.29472,-0.16255 -0.45314,-0.35595 -0.11881,-0.14505 -0.18927,-0.32971 -0.0705,-0.18466 -0.12986,-0.25718 -0.25743,-0.31428 -0.56758,-0.54498 -0.33432,-0.2109 -0.39373,-0.28342 -0.0792,-0.0967 -0.12986,-0.25719 -0.14299,-0.12525 -0.30578,-0.27467 -0.2816,-0.29448 -0.40916,-0.35158 -0.0836,-0.0527 -0.16279,-0.14942 l -0.0792,-0.0967 q -0.0792,-0.0967 -0.16947,-0.30554 -0.14736,-0.0813 -0.3783,-0.21527 -0.58507,-0.36907 -0.8821,-0.7317 -0.21782,-0.26592 -0.11905,-0.58919 -0.0265,-0.18029 -0.0134,-0.31222 0.0262,-0.26386 0.21965,-0.42228 0.12087,-0.099 0.32533,-0.14529 l 0.0242,-0.0198 q 0.10107,-0.12319 0.12525,-0.14299 0.0813,-0.14736 0.17797,-0.22657 0.24176,-0.19802 0.56502,-0.0992 l 0.21552,0.0658 q 0.17153,0.0615 0.27054,0.18234 0.0792,0.0967 0.11444,0.18903 l 0.0198,0.0242 q 0.18697,0.12962 0.30578,0.27467 0.19802,0.24176 0.40272,0.63962 0.055,0.1165 0.15404,0.23738 0.17821,0.21758 0.48836,0.44827 0.0638,0.0285 0.12319,0.10108 l 0.61386,0.74944 q 0.18696,0.12962 0.28597,0.2505 l 0.11444,0.18903 0.21782,0.26592 0.3014,0.31866 q 0.10338,0.0769 0.34975,0.27905 l 0.0396,0.0483 q 0.22219,0.22195 0.3608,0.39118 l 0.099,0.12087 q 0.0594,0.0725 0.0946,0.16486 0.0198,0.0242 0.0638,0.0285 0.0198,0.0242 0.0396,0.0483 0.50817,0.47245 0.60718,0.59333 0.11881,0.14505 0.12112,0.34513 0.42228,0.21965 0.76766,0.54267 0.16278,0.14943 0.3212,0.34283 0.19802,0.24175 0.38729,0.57146 0.19365,0.28573 0.31246,0.43079 l 0.0792,0.0967 q 0.18259,0.1736 0.70618,0.7142 0.52797,0.49663 0.79414,0.72296 0.18697,0.12962 0.36956,0.30322 -0.0748,-0.14068 -0.1255,-0.30116 l -0.39603,-0.48351 -0.9641,-1.91677 -0.69307,-0.84614 q -0.0594,-0.0725 -0.0748,-0.14068 -0.54595,-1.20901 -0.61641,-1.39367 -0.0792,-0.0967 -0.27285,-0.38243 l -0.17822,-0.21758 -0.22219,-0.22195 q -0.14299,-0.12525 -0.242,-0.24612 -0.17822,-0.21758 -0.28391,-0.49457 l -0.0198,-0.0242 q -0.0352,-0.0923 -0.0507,-0.16048 l -0.0594,-0.0725 q -0.0594,-0.0725 -0.18259,-0.1736 -0.0836,-0.0527 -0.12319,-0.10107 -0.099,-0.12088 -0.12549,-0.30116 l -0.0309,-0.13631 -0.31683,-0.3868 q -0.0792,-0.0967 -0.11006,-0.23301 -0.055,-0.1165 -0.34332,-0.56709 -0.34768,-0.52311 -0.48192,-0.73632 -0.11444,-0.18902 -0.0926,-0.40891 -0.22888,-0.37806 -0.37211,-0.94746 -0.10132,-0.32096 -0.18721,-0.57377 -0.0859,-0.2528 -0.0815,-0.29678 -0.20033,-0.44184 0.1623,-0.73887 l 0.31428,-0.25742 q 0.19341,-0.15842 0.43747,-0.15635 0.0198,0.0242 0.044,0.004 0.0682,-0.0154 0.13194,0.0131 0.35181,0.035 0.62673,0.17336 0.10339,0.0769 0.16279,0.14943 0.13861,0.16922 0.16072,0.39348 0.0352,0.0923 0.0705,0.18466 0.0352,0.0923 0.0463,0.20446 0.0177,0.26823 0.02,0.46832 l 0.47525,0.58021 q 0.28391,0.49456 0.44463,0.88805 0.12987,0.25718 0.36312,0.59126 0.31245,0.43078 0.42252,0.66379 0.0352,0.0923 0.16947,0.30553 0.23762,0.29011 0.35206,0.47914 0.0396,0.0483 0.0352,0.0923 0.25098,0.60232 0.40733,1.03979 0.12987,0.25718 0.34769,0.52311 l 0.35643,0.43515 q 0.23763,0.29011 0.32789,0.49894 l 0.0396,0.0483 q 0.0507,0.16048 0.17615,0.46164 0.1255,0.30116 0.22013,0.46601 0.0946,0.16486 0.69975,1.00225 0.0594,0.0725 0.0748,0.14068 0.0705,0.18465 0.0882,0.45289 l 0.0154,0.0682 q 0.22219,0.22195 0.34101,0.36701 0.17821,0.21757 0.42045,0.90785 l 0.47525,0.5802 q 0.0594,0.0725 0.0946,0.16486 0.18053,0.41766 0.63828,1.17378 0.43358,0.77592 0.6339,1.21776 l 0.41584,0.50768 q 0.099,0.12088 0.14967,0.28136 l 0.0221,0.22426 0.53465,0.65273 q 0.099,0.12088 0.12987,0.25718 0.0882,0.45289 0.76377,1.47494 0.36748,0.54729 0.68432,0.93409 0.25742,0.31428 0.47961,0.53623 0.044,0.004 0.0836,0.0527 0.13862,0.16923 0.13655,0.41329 z"
       style="font-style:normal;font-variant:normal;font-weight:normal;font-stretch:normal;font-size:32px;font-family:'Cvlt Rvne Demo';-inkscape-font-specification:'Cvlt Rvne Demo'"
       id="path1059" />
  </g>
</svg>
